<?xml version="1.0" encoding="UTF-8"?>
<svg xmlns="http://www.w3.org/2000/svg" viewBox="0 0 330 252">
  <defs>
    <style>
      .cls-1 {
        fill: #ae9f97;
        mix-blend-mode: soft-light;
        opacity: .45;
      }

      .cls-1, .cls-2, .cls-3, .cls-4, .cls-5, .cls-6, .cls-7, .cls-8, .cls-9, .cls-10 {
        stroke-width: 0px;
      }

      .cls-2 {
        fill: #6f6f6e;
        opacity: .5;
      }

      .cls-2, .cls-10 {
        mix-blend-mode: multiply;
      }

      .cls-11 {
        isolation: isolate;
      }

      .cls-3 {
        fill: #f2f2f2;
      }

      .cls-4 {
        fill: #877368;
      }

      .cls-5 {
        fill: #454443;
      }

      .cls-6 {
        fill: #c6c6c5;
      }

      .cls-7 {
        fill: #ececec;
      }

      .cls-8 {
        fill: #fff;
      }

      .cls-9 {
        fill: #0065dc;
      }

      .cls-10 {
        fill: #9c9b9b;
        opacity: .4;
      }
    </style>
  </defs>
  <g class="cls-11">
    <g id="Capa_2" data-name="Capa 2">
      <g id="Capa_1-2" data-name="Capa 1">
        <g>
          <rect class="cls-3" x="18" y="58" width="294" height="194"/>
          <rect class="cls-3" x="11" y="45" width="308" height="13"/>
          <rect class="cls-9" x="75" width="179" height="34"/>
          <rect class="cls-9" x="7" y="230" width="316" height="22"/>
          <g>
            <path class="cls-7" d="m108.6,16.26c-.04,3.56-2.19,7.11-6.95,7.11s-6.97-3.48-6.97-7.09,2.28-7.25,6.97-7.25,6.99,3.63,6.95,7.23Zm-11.4.06c.06,2.26,1.26,4.67,4.45,4.67s4.39-2.43,4.43-4.69c.04-2.32-1.24-4.91-4.43-4.91s-4.51,2.61-4.45,4.93Z"/>
            <path class="cls-7" d="m120,9h3v14h-2v.02l-7-9.29v9.27h-3v-14h2.14l6.86,8.68v-8.68Z"/>
            <path class="cls-7" d="m129,9v12h7v2h-10v-14h3Z"/>
            <path class="cls-7" d="m138,23v-14h3v14h-3Z"/>
            <path class="cls-7" d="m153,9h3v14h-2v.02l-7-9.29v9.27h-3v-14h2.14l6.86,8.68v-8.68Z"/>
            <path class="cls-7" d="m170,23h-11v-14h11v3h-8v3h7v2h-7v3h8v3Z"/>
            <path class="cls-7" d="m185.49,12.63c-.46-.79-1.74-1.53-3.21-1.53-1.9,0-2.81.8-2.81,1.83,0,1.2,1.39,1.53,3.02,1.73,2.83.35,5.46,1.1,5.46,4.38,0,3.06-2.67,4.38-5.69,4.38-2.77,0-4.9-.86-5.9-3.38l2.13-1.12c.6,1.51,2.17,2.18,3.81,2.18s3.12-.57,3.12-2.06c0-1.3-1.34-1.83-3.14-2.02-2.77-.33-5.32-1.08-5.32-4.16,0-2.83,2.75-3.99,5.24-4.01,2.11,0,4.3.61,5.32,2.73l-2.03,1.06Z"/>
            <path class="cls-7" d="m200,23v-5h-6v5h-3v-14h2v6h7v-6h3v14h-3Z"/>
            <path class="cls-7" d="m219.34,16.26c-.04,3.56-2.19,7.11-6.95,7.11s-6.97-3.48-6.97-7.09,2.28-7.25,6.97-7.25,6.99,3.63,6.95,7.23Zm-11.4.06c.06,2.26,1.26,4.67,4.45,4.67s4.39-2.43,4.43-4.69c.04-2.32-1.24-4.91-4.43-4.91s-4.51,2.61-4.45,4.93Z"/>
            <path class="cls-7" d="m228.58,19h-3.58v4h-3v-14c2.19,0,4.39-.02,6.58-.02,6.82,0,6.84,10.02,0,10.02Zm-3.58-2h3.93c3.36,0,3.34-5,0-5h-3.93v5Z"/>
          </g>
          <rect class="cls-10" x="18" y="58" width="294" height="4"/>
          <g>
            <rect class="cls-5" x="92" y="34" width="5" height="10"/>
            <rect class="cls-5" x="233" y="34" width="5" height="10"/>
          </g>
          <rect class="cls-6" x="131" y="137" width="68" height="115"/>
          <g>
            <rect class="cls-5" x="137" y="143" width="56" height="109"/>
            <rect class="cls-4" x="118.5" y="177.5" width="93" height="40" transform="translate(362.5 32.5) rotate(90)"/>
            <g>
              <polygon class="cls-1" points="166.89 244 185 222.18 185 214.28 160.34 244 166.89 244"/>
              <polygon class="cls-1" points="145 227.43 185 179.66 185 151 182.24 151 145 195.47 145 227.43"/>
            </g>
            <rect class="cls-5" x="142" y="194" width="45" height="4"/>
            <rect class="cls-2" x="137" y="197" width="56" height="3"/>
            <g>
              <rect class="cls-7" x="152" y="171" width="25" height="14"/>
              <polygon class="cls-6" points="152.73 185 152 185 152 171 164.35 171 152.73 185"/>
            </g>
          </g>
          <g>
            <rect class="cls-8" x="27" y="119" width="95" height="101"/>
            <rect class="cls-4" x="31" y="123" width="88" height="94"/>
            <g>
              <polygon class="cls-1" points="91.31 217 119 183.64 119 167.85 78.21 217 91.31 217"/>
              <polygon class="cls-1" points="30 192.27 87.49 123 80.76 123 30 184.16 30 192.27"/>
              <polygon class="cls-1" points="72.84 217 119 161.38 119 128.05 45.18 217 72.84 217"/>
            </g>
          </g>
          <g>
            <rect class="cls-8" x="208" y="119" width="95" height="101"/>
            <rect class="cls-4" x="211" y="123" width="88" height="94"/>
            <g>
              <polygon class="cls-1" points="279.83 217 299 193.91 299 163.88 254.91 217 279.83 217"/>
              <polygon class="cls-1" points="211 190.18 266.75 123 260.2 123 211 182.28 211 190.18"/>
              <polygon class="cls-1" points="277.6 123 211 203.25 211 217 216.69 217 294.7 123 277.6 123"/>
            </g>
          </g>
          <g>
            <path class="cls-2" d="m309.08,137H18v21.03c2.21-1.27,3.7-3.64,3.7-6.36h0s0,0,0,0c0,4.05,3.29,7.33,7.35,7.33h7.35c4.06,0,7.35-3.28,7.35-7.33,0,4.05,3.29,7.33,7.35,7.33h7.35c4.06,0,7.35-3.28,7.35-7.33,0,4.05,3.29,7.33,7.35,7.33h7.35c4.06,0,7.35-3.28,7.35-7.33,0,4.05,3.29,7.33,7.35,7.33h7.35c4.06,0,7.35-3.28,7.35-7.33,0,4.05,3.29,7.33,7.35,7.33h7.35c4.06,0,7.35-3.28,7.35-7.33,0,4.05,3.29,7.33,7.35,7.33h7.35c4.06,0,7.35-3.28,7.35-7.33,0,4.05,3.29,7.33,7.35,7.33h7.35c4.06,0,7.35-3.28,7.35-7.33,0,4.05,3.29,7.33,7.35,7.33h7.35c4.06,0,7.35-3.28,7.35-7.33,0,4.05,3.29,7.33,7.35,7.33h7.35c4.06,0,7.35-3.28,7.35-7.33,0,4.05,3.29,7.33,7.35,7.33h7.35c4.06,0,7.35-3.28,7.35-7.33,0,4.05,3.29,7.33,7.35,7.33h7.35c4.06,0,7.35-3.28,7.35-7.33,0,4.05,3.29,7.33,7.35,7.33h7.35c4.06,0,7.35-3.28,7.35-7.33,0,4.05,3.29,7.33,7.35,7.33h7.35c4.06,0,7.35-3.28,7.35-7.33,0,2.7,1.47,5.06,3.65,6.33v-21h-2.92Z"/>
            <g>
              <g>
                <polygon class="cls-9" points="328.53 124 1.1 124 19.29 76 310.34 76 328.53 124"/>
                <polygon class="cls-8" points="43.64 124 21.81 124 37.58 76 56.98 76 43.64 124"/>
                <polygon class="cls-8" points="87.67 124 65.84 124 76.76 76 96.16 76 87.67 124"/>
                <polygon class="cls-8" points="131.7 124 109.87 124 115.93 76 135.34 76 131.7 124"/>
                <polygon class="cls-8" points="175.73 124 153.9 124 155.11 76 174.52 76 175.73 124"/>
                <polygon class="cls-8" points="219.76 124 197.93 124 194.3 76 213.7 76 219.76 124"/>
                <polygon class="cls-8" points="263.79 124 241.96 124 233.47 76 252.88 76 263.79 124"/>
                <polygon class="cls-8" points="307.82 124 285.99 124 272.65 76 292.05 76 307.82 124"/>
              </g>
              <g>
                <path class="cls-9" d="m286,125h22v11.88c0,5.59-4.54,10.12-10.12,10.12h-1.75c-5.59,0-10.12-4.54-10.12-10.12v-11.88h0Z"/>
                <path class="cls-9" d="m308,125h22v11.88c0,5.59-4.54,10.12-10.12,10.12h-1.75c-5.59,0-10.12-4.54-10.12-10.12v-11.88h0Z"/>
                <path class="cls-9" d="m242,125h22v11.88c0,5.59-4.54,10.12-10.12,10.12h-1.75c-5.59,0-10.12-4.54-10.12-10.12v-11.88h0Z"/>
                <path class="cls-9" d="m264,125h22v11.88c0,5.59-4.54,10.12-10.12,10.12h-1.75c-5.59,0-10.12-4.54-10.12-10.12v-11.88h0Z"/>
                <path class="cls-9" d="m198,125h22v11.88c0,5.59-4.54,10.12-10.12,10.12h-1.75c-5.59,0-10.12-4.54-10.12-10.12v-11.88h0Z"/>
                <path class="cls-9" d="m220,125h22v11.88c0,5.59-4.54,10.12-10.12,10.12h-1.75c-5.59,0-10.12-4.54-10.12-10.12v-11.88h0Z"/>
                <path class="cls-9" d="m154,125h22v11.88c0,5.59-4.54,10.12-10.12,10.12h-1.75c-5.59,0-10.12-4.54-10.12-10.12v-11.88h0Z"/>
                <path class="cls-9" d="m176,125h22v11.88c0,5.59-4.54,10.12-10.12,10.12h-1.75c-5.59,0-10.12-4.54-10.12-10.12v-11.88h0Z"/>
                <path class="cls-9" d="m110,125h22v11.88c0,5.59-4.54,10.12-10.12,10.12h-1.75c-5.59,0-10.12-4.54-10.12-10.12v-11.88h0Z"/>
                <path class="cls-9" d="m132,125h22v11.88c0,5.59-4.54,10.12-10.12,10.12h-1.75c-5.59,0-10.12-4.54-10.12-10.12v-11.88h0Z"/>
                <path class="cls-9" d="m66,125h22v11.88c0,5.59-4.54,10.12-10.12,10.12h-1.75c-5.59,0-10.12-4.54-10.12-10.12v-11.88h0Z"/>
                <path class="cls-9" d="m88,125h22v11.88c0,5.59-4.54,10.12-10.12,10.12h-1.75c-5.59,0-10.12-4.54-10.12-10.12v-11.88h0Z"/>
                <path class="cls-9" d="m22,125h22v11.88c0,5.59-4.54,10.12-10.12,10.12h-1.75c-5.59,0-10.12-4.54-10.12-10.12v-11.88h0Z"/>
                <path class="cls-9" d="m44,125h22v11.88c0,5.59-4.54,10.12-10.12,10.12h-1.75c-5.59,0-10.12-4.54-10.12-10.12v-11.88h0Z"/>
                <path class="cls-9" d="m0,125h22v11.88c0,5.59-4.54,10.12-10.12,10.12h-1.75C4.54,147,0,142.46,0,136.88v-11.88H0Z"/>
              </g>
            </g>
          </g>
        </g>
      </g>
    </g>
  </g>
</svg>