<?xml version="1.0" encoding="UTF-8"?>
<svg id="Capa_2" data-name="Capa 2" xmlns="http://www.w3.org/2000/svg" viewBox="0 0 171.5 142.5">
  <defs>
    <style>
      .cls-1, .cls-2, .cls-3, .cls-4 {
        fill-rule: evenodd;
      }

      .cls-1, .cls-2, .cls-3, .cls-4, .cls-5, .cls-6 {
        stroke-width: 0px;
      }

      .cls-1, .cls-6 {
        fill: #0065dc;
      }

      .cls-2 {
        fill: #e6e6e6;
      }

      .cls-3, .cls-5 {
        fill: #fff;
      }

      .cls-4 {
        fill: #686868;
      }
    </style>
  </defs>
  <g id="Capa_1-2" data-name="Capa 1">
    <g>
      <path class="cls-2" d="m171.5,38.95c0-5-3.28-9.06-7.32-9.06H34.66c-4.04,0-7.32,4.06-7.32,9.06v94.49c0,5,3.28,9.06,7.32,9.06h129.51c4.04,0,7.32-4.06,7.32-9.06V38.95h0Z"/>
      <polygon class="cls-4" points="170.67 54.81 26.51 54.81 26.51 73.74 170.67 73.74 170.67 54.81 170.67 54.81"/>
      <path class="cls-1" d="m144.16,9.06c0-5-3.28-9.06-7.32-9.06H7.32C3.28,0,0,4.06,0,9.06v94.49c0,5,3.28,9.06,7.32,9.06h129.51c4.04,0,7.32-4.06,7.32-9.06V9.06h0Z"/>
      <polygon class="cls-3" points="72.08 25.91 59.65 25.91 59.65 38.86 72.08 38.86 72.08 25.91 72.08 25.91"/>
      <polygon class="cls-3" points="92.79 25.91 80.36 25.91 80.36 38.86 92.79 38.86 92.79 25.91 92.79 25.91"/>
      <polygon class="cls-3" points="114.33 25.91 101.91 25.91 101.91 38.86 114.33 38.86 114.33 25.91 114.33 25.91"/>
      <polygon class="cls-3" points="133.39 25.91 120.96 25.91 120.96 38.86 133.39 38.86 133.39 25.91 133.39 25.91"/>
      <polygon class="cls-3" points="43.08 14.95 14.91 14.95 14.91 38.86 43.08 38.86 43.08 14.95 43.08 14.95"/>
      <rect class="cls-5" x="115.99" y="86.7" width="17.4" height="14.95"/>
      <rect class="cls-6" x="96.93" y="86.7" width="17.4" height="14.95"/>
    </g>
  </g>
</svg>