<?xml version="1.0" encoding="UTF-8"?>
<svg id="Capa_2" data-name="Capa 2" xmlns="http://www.w3.org/2000/svg" viewBox="0 0 125.34 254">
  <defs>
    <style>
      .cls-1 {
        fill: #00d600;
      }

      .cls-1, .cls-2, .cls-3, .cls-4, .cls-5, .cls-6 {
        fill-rule: evenodd;
        stroke-width: 0px;
      }

      .cls-2 {
        fill: #0065dc;
      }

      .cls-3 {
        fill: #ccc;
      }

      .cls-4 {
        fill: #e6e6e6;
      }

      .cls-5 {
        fill: #fff;
      }

      .cls-6 {
        fill: #f2f2f2;
      }
    </style>
  </defs>
  <g id="Capa_1-2" data-name="Capa 1">
    <g>
      <path class="cls-4" d="m123.47,105.15c0-18.29-13.68-33.15-30.53-33.15H31.86c-16.85,0-30.53,14.85-30.53,33.15,0,0-1.33,36.07-1.33,54.11s1.33,58.6,1.33,58.6c0,18.29,13.68,33.15,30.53,33.15h61.07c16.85,0,30.53-14.85,30.53-33.15,0,0,1.87-39.61,1.87-58.39s-1.87-54.32-1.87-54.32h0Z"/>
      <path class="cls-2" d="m115.64,73.24c0-5.11-4.12-9.24-9.2-9.24H18.86c-5.09,0-9.22,4.13-9.22,9.22v171.56c0,5.09,4.13,9.22,9.22,9.22h87.56c5.09,0,9.22-4.13,9.22-9.22V73.24h0Z"/>
      <path class="cls-5" d="m105.64,84.43c0-4.1-3.33-7.43-7.43-7.43H27.04c-4.09,0-7.4,3.31-7.4,7.4v61.2c0,4.09,3.31,7.4,7.4,7.4h71.2c4.09,0,7.4-3.31,7.4-7.4v-61.17h0Z"/>
      <path class="cls-1" d="m62.71,91.22c11.99,0,21.73,9.85,21.73,21.99s-9.74,21.99-21.73,21.99-21.73-9.85-21.73-21.99,9.74-21.99,21.73-21.99h0Z"/>
      <path class="cls-5" d="m61,116.37l9.98-10.1c1.24-1.26,3.26-1.26,4.5,0,1.24,1.26,1.24,3.3,0,4.55l-12.06,12.21c-.06.06-.13.13-.2.18-1.24,1.23-3.24,1.22-4.48-.02l-7.18-7.26c-1.24-1.26-1.24-3.3,0-4.55,1.24-1.26,3.26-1.26,4.5,0l4.94,5h0Z"/>
      <path class="cls-2" d="m108.32,63c0-7.73-6.27-14-14-14h-61.83c-7.73,0-14,6.27-14,14h0s89.83,0,89.83,0h0Z"/>
      <path class="cls-6" d="m98.52,0h-63.07s3.66,6.72-4.67,21.05c-8.19,14.11.69,34.95.69,34.95h63.07s-8.05-20.35-.69-33.79c7.43-13.56,4.67-22.21,4.67-22.21h0Z"/>
      <path class="cls-3" d="m43.64,168.97c0-1.64-1.34-2.97-2.99-2.97h-16.97c-1.68,0-3.04,1.36-3.04,3.04v6.91c0,1.68,1.36,3.04,3.04,3.04h16.91c1.68,0,3.04-1.36,3.04-3.04v-6.99h0Z"/>
      <path class="cls-3" d="m43.64,189.25c0-1.79-1.47-3.25-3.27-3.25h-16.39c-1.84,0-3.34,1.49-3.34,3.34v6.33c0,1.84,1.49,3.34,3.34,3.34h16.33c1.84,0,3.34-1.49,3.34-3.34v-6.41h0Z"/>
      <path class="cls-3" d="m43.64,209.25c0-1.79-1.47-3.25-3.27-3.25h-16.39c-1.84,0-3.34,1.49-3.34,3.34v6.33c0,1.84,1.49,3.34,3.34,3.34h16.33c1.84,0,3.34-1.49,3.34-3.34v-6.41h0Z"/>
      <path class="cls-3" d="m43.64,229.25c0-1.79-1.47-3.25-3.27-3.25h-16.39c-1.84,0-3.34,1.49-3.34,3.34v6.33c0,1.84,1.49,3.34,3.34,3.34h16.33c1.84,0,3.34-1.49,3.34-3.34v-6.41h0Z"/>
      <path class="cls-3" d="m74.64,169.25c0-1.79-1.47-3.25-3.27-3.25h-16.39c-1.84,0-3.34,1.49-3.34,3.34v6.33c0,1.84,1.49,3.34,3.34,3.34h16.33c1.84,0,3.34-1.49,3.34-3.34v-6.41h0Z"/>
      <path class="cls-3" d="m74.64,189.25c0-1.79-1.47-3.25-3.27-3.25h-16.39c-1.84,0-3.34,1.49-3.34,3.34v6.33c0,1.84,1.49,3.34,3.34,3.34h16.33c1.84,0,3.34-1.49,3.34-3.34v-6.41h0Z"/>
      <path class="cls-3" d="m74.64,209.25c0-1.79-1.47-3.25-3.27-3.25h-16.39c-1.84,0-3.34,1.49-3.34,3.34v6.33c0,1.84,1.49,3.34,3.34,3.34h16.33c1.84,0,3.34-1.49,3.34-3.34v-6.41h0Z"/>
      <path class="cls-1" d="m74.64,229.25c0-1.79-1.47-3.25-3.27-3.25h-16.39c-1.84,0-3.34,1.49-3.34,3.34v6.33c0,1.84,1.49,3.34,3.34,3.34h16.33c1.84,0,3.34-1.49,3.34-3.34v-6.41h0Z"/>
      <path class="cls-3" d="m104.64,169.25c0-1.79-1.47-3.25-3.27-3.25h-16.39c-1.84,0-3.34,1.49-3.34,3.34v6.33c0,1.84,1.49,3.34,3.34,3.34h16.33c1.84,0,3.34-1.49,3.34-3.34v-6.41h0Z"/>
      <path class="cls-3" d="m104.64,189.25c0-1.79-1.47-3.25-3.27-3.25h-16.39c-1.84,0-3.34,1.49-3.34,3.34v6.33c0,1.84,1.49,3.34,3.34,3.34h16.33c1.84,0,3.34-1.49,3.34-3.34v-6.41h0Z"/>
      <path class="cls-3" d="m104.64,209.25c0-1.79-1.47-3.25-3.27-3.25h-16.39c-1.84,0-3.34,1.49-3.34,3.34v6.33c0,1.84,1.49,3.34,3.34,3.34h16.33c1.84,0,3.34-1.49,3.34-3.34v-6.41h0Z"/>
      <path class="cls-3" d="m104.64,229.25c0-1.79-1.47-3.25-3.27-3.25h-16.39c-1.84,0-3.34,1.49-3.34,3.34v6.33c0,1.84,1.49,3.34,3.34,3.34h16.33c1.84,0,3.34-1.49,3.34-3.34v-6.41h0Z"/>
    </g>
  </g>
</svg>