<svg xmlns="http://www.w3.org/2000/svg" xmlns:xlink="http://www.w3.org/1999/xlink" xmlns:lucid="lucid" width="838.64" height="875.46"><g transform="translate(1242.345042643575 376.3540899999999)" lucid:page-tab-id="0_0"><path d="M-676.33-375.35v2m0 4l.02 4m0 4.02v4m0 4l.02 4.02m0 4l.02 4m0 4l.02 4.02m0 4v4m.02 4.02v4m.02 4v4.02m.02 4v4m0 4.02l.02 4m0 4l.02 4.02m0 4l.02 4m0 4.02l.02 4m0 4v4.02m.02 4v4m.02 4.02v4m.02 4v4.02m0 4l.02 4m0 4.02l.02 4m0 4l.02 4.02m0 4v4m.02 4.02v4m.02 4v4.02m.02 4v4m0 4.02l.02 4m0 4l.02 4.02m0 4l.02 4m0 4.02v4m.02 4v4.02m.02 4v4m.02 4.02v4m.02 4v4.02m0 4l.02 4m0 4.02l.02 4m0 4l.02 4.02m0 4v4m.02 4.02v4m.02 4v4.02m.02 4v4m0 4.02l.02 4m0 4l.02 4.02m0 4l.02 4m0 4.02v4m.02 4v4.02m.02 4v4m.02 4.02v4m0 4l.02 4.02m0 4l.02 4m0 4.02l.02 4m0 4l.02 4.02m0 4v4m.02 4.02v4m.02 4v4.02m.02 4v4m0 4.02l.02 4m0 4l.02 4.02m0 4l.02 4m0 4.02v4m.02 4v4.02m.02 4v4m.02 4.02v4m0 4l.02 4.02m0 4l.02 4m0 4.02l.02 4m0 4v4.02m.02 4v4m.02 4.02v4m.02 4v4.02m.02 4v4m0 4.02l.02 4m0 4l.02 4.02m0 4l.02 4m0 4.02v4m.02 4v4.02m.02 4v4m.02 4.02v4m0 4l.02 4.02m0 4l.02 4m0 4.02l.02 4m0 4v4.02m.02 4v4m.02 4.02v4m.02 4v4.02m.02 4v4m0 4.02l.02 4m0 4l.02 4.02m0 4l.02 4m0 4.02v4m.02 4v4.02m.02 4v4m.02 4.02v4m0 4l.02 4.02m0 4l.02 4m0 4.02l.02 4m0 4l.02 4.02m0 4v4m.02 4.02v4m.02 4v4.02m0 4l.02 4.02m0 4l.02 4m0 4l.02 4.02m0 4l.02 4m0 4.02v4m.02 4.02v4m.02 4v4m.02 4.02v4m0 4l.02 4.02m0 4l.02 4.02m0 4v2M-676.33-375.34v-.5M-674.45 498.1v.5" stroke="#3a414a" fill="none"/><path d="M-1241.35-365a6 6 0 0 1 6-6h228a6 6 0 0 1 6 6v48a6 6 0 0 1-6 6h-228a6 6 0 0 1-6-6z" stroke="#000" stroke-opacity="0" stroke-width="2" fill="#fff" fill-opacity="0"/><use xlink:href="#a" transform="matrix(1,0,0,1,-1236.345042643575,-366) translate(38.099999999999994 33.448611111111106)"/><use xlink:href="#b" transform="matrix(1,0,0,1,-1236.345042643575,-366) translate(142.07777777777778 33.448611111111106)"/><path d="M-936.48-365a6 6 0 0 1 6-6h228a6 6 0 0 1 6 6v48a6 6 0 0 1-6 6h-228a6 6 0 0 1-6-6z" stroke="#000" stroke-opacity="0" stroke-width="2" fill="#fff" fill-opacity="0"/><use xlink:href="#c" transform="matrix(1,0,0,1,-931.4813307394828,-366) translate(21.344444444444434 33.448611111111106)"/><use xlink:href="#d" transform="matrix(1,0,0,1,-931.4813307394828,-366) translate(94.54444444444444 33.448611111111106)"/><use xlink:href="#e" transform="matrix(1,0,0,1,-931.4813307394828,-366) translate(164.54444444444445 33.448611111111106)"/><path d="M-969.3-375.35v2m0 4l.02 4m0 4.02v4m.02 4v4.02m.02 4v4m.02 4v4.02m0 4l.02 4m0 4.02l.02 4m0 4l.02 4.02m0 4v4m.02 4.02v4m.02 4v4.02m.02 4v4m.02 4.02v4m0 4l.02 4.02m0 4l.02 4m0 4.02l.02 4m0 4v4.02m.02 4v4m.02 4.02v4m.02 4v4.02m0 4l.02 4m0 4.02l.02 4m0 4l.02 4.02m0 4v4m.02 4.02v4m.02 4v4.02m.02 4v4m.02 4.02v4m0 4l.02 4.02m0 4l.02 4m0 4.02l.02 4m0 4v4.02m.02 4v4m.02 4.02v4m.02 4v4.02m0 4l.02 4m0 4.02l.02 4m0 4l.02 4.02m0 4v4m.02 4.02v4m.02 4v4.02m.02 4v4m0 4.02l.02 4m0 4l.02 4.02m0 4l.02 4m0 4.02l.02 4m0 4V3.3m.02 4v4m.02 4.02v4m.02 4v4.02m0 4l.02 4m0 4.02l.02 4m0 4l.02 4.02m0 4v4m.02 4.02v4m.02 4v4.02m.02 4v4m.02 4.02v4m0 4l.02 4.02m0 4l.02 4m0 4.02v4m.02 4v4.02m.02 4v4m.02 4.02v4m.02 4v4.02m0 4l.02 4m0 4.02l.02 4m0 4l.02 4.02m0 4v4m.02 4.02v4m.02 4v4.02m.02 4v4m0 4.02l.02 4m0 4l.02 4.02m0 4l.02 4m0 4.02v4m.02 4v4.02m.02 4v4m.02 4.02v4m.02 4v4.02m0 4l.02 4m0 4.02l.02 4m0 4l.02 4.02m0 4v4m.02 4.02v4m.02 4v4.02m.02 4v4m0 4.02l.02 4m0 4l.02 4.02m0 4l.02 4m0 4.02v4m.02 4v4.02m.02 4v4m.02 4.02v4m0 4l.02 4.02m0 4l.02 4m0 4.02l.02 4m0 4l.02 4.02m0 4V420m.02 4v4m.02 4V436m.02 4v4m0 4.02l.02 4m0 4.02l.02 4m0 4l.02 4m0 4.02v4m.02 4v4.02m.02 4v4.02m.02 4v2M-969.3-375.34v-.5M-967.42 498.1v.5" stroke="#3a414a" fill="none"/><path d="M-650.52-365a6 6 0 0 1 6-6h228a6 6 0 0 1 6 6v48a6 6 0 0 1-6 6h-228a6 6 0 0 1-6-6z" stroke="#000" stroke-opacity="0" stroke-width="2" fill="#fff" fill-opacity="0"/><use xlink:href="#f" transform="matrix(1,0,0,1,-645.5233099079894,-366) translate(52.755555555555546 33.448611111111106)"/><use xlink:href="#e" transform="matrix(1,0,0,1,-645.5233099079894,-366) translate(133.13333333333333 33.448611111111106)"/><path d="M-935.4-299.05a6 6 0 0 1 6-6h225.82a6 6 0 0 1 6 6v85.33a6 6 0 0 1-6 6h-225.8a6 6 0 0 1-6-6z" stroke="#5a7d5a" stroke-width="2" fill="#c8d9c8"/><use xlink:href="#g" transform="matrix(1,0,0,1,-930.3848897319391,-300.04567098221725) translate(36.43333333333334 42.104861111111106)"/><use xlink:href="#h" transform="matrix(1,0,0,1,-930.3848897319391,-300.04567098221725) translate(84.25555555555556 42.104861111111106)"/><use xlink:href="#i" transform="matrix(1,0,0,1,-930.3848897319391,-300.04567098221725) translate(131.67777777777778 42.104861111111106)"/><use xlink:href="#j" transform="matrix(1,0,0,1,-930.3848897319391,-300.04567098221725) translate(51.42587999999999 64.37359222222221)"/><use xlink:href="#k" transform="matrix(1,0,0,1,-930.3848897319391,-300.04567098221725) translate(86.76401999999999 64.37359222222221)"/><use xlink:href="#l" transform="matrix(1,0,0,1,-930.3848897319391,-300.04567098221725) translate(126.82284 64.37359222222221)"/><use xlink:href="#m" transform="matrix(1,0,0,1,-930.3848897319391,-300.04567098221725) translate(144.41658 64.37359222222221)"/><path d="M-1240.25-299.05a6 6 0 0 1 6-6h225.8a6 6 0 0 1 6 6v85.33a6 6 0 0 1-6 6h-225.8a6 6 0 0 1-6-6z" stroke="#5a7d5a" stroke-width="2" fill="#c8d9c8"/><use xlink:href="#n" transform="matrix(1,0,0,1,-1235.2486016360313,-300.04567098221725) translate(32.51111111111112 42.104861111111106)"/><use xlink:href="#o" transform="matrix(1,0,0,1,-1235.2486016360313,-300.04567098221725) translate(96.64444444444446 42.104861111111106)"/><use xlink:href="#p" transform="matrix(1,0,0,1,-1235.2486016360313,-300.04567098221725) translate(40.64532 64.37359222222221)"/><use xlink:href="#q" transform="matrix(1,0,0,1,-1235.2486016360313,-300.04567098221725) translate(95.78688000000001 64.37359222222221)"/><use xlink:href="#r" transform="matrix(1,0,0,1,-1235.2486016360313,-300.04567098221725) translate(148.60158 64.37359222222221)"/><path d="M-642.5-299.05a6 6 0 0 1 6-6h225.8a6 6 0 0 1 6 6v85.33a6 6 0 0 1-6 6h-225.8a6 6 0 0 1-6-6z" stroke="#003d87" stroke-width="2" fill="#b8cce0"/><use xlink:href="#s" transform="matrix(1,0,0,1,-637.5142637758073,-300.04567098221725) translate(44.96666666666667 42.104861111111106)"/><use xlink:href="#t" transform="matrix(1,0,0,1,-637.5142637758073,-300.04567098221725) translate(118.16666666666667 42.104861111111106)"/><use xlink:href="#u" transform="matrix(1,0,0,1,-637.5142637758073,-300.04567098221725) translate(52.965959999999995 64.37359222222221)"/><use xlink:href="#v" transform="matrix(1,0,0,1,-637.5142637758073,-300.04567098221725) translate(92.08734 64.37359222222221)"/><use xlink:href="#w" transform="matrix(1,0,0,1,-637.5142637758073,-300.04567098221725) translate(145.20336 64.37359222222221)"/><path d="M-642.5-129.2a6 6 0 0 1 6-6h225.8a6 6 0 0 1 6 6v85.32a6 6 0 0 1-6 6h-225.8a6 6 0 0 1-6-6z" stroke="#2d5f8a" stroke-width="2" fill="#b8cce0"/><use xlink:href="#x" transform="matrix(1,0,0,1,-637.5142637758073,-130.20555118575453) translate(68.67777777777778 42.104861111111106)"/><use xlink:href="#p" transform="matrix(1,0,0,1,-637.5142637758073,-130.20555118575453) translate(52.723229999999994 64.37359222222221)"/><use xlink:href="#y" transform="matrix(1,0,0,1,-637.5142637758073,-130.20555118575453) translate(107.86479 64.37359222222221)"/><use xlink:href="#z" transform="matrix(1,0,0,1,-637.5142637758073,-130.20555118575453) translate(141.56241 64.37359222222221)"/><path d="M-1000.94-256.4h50.07" stroke="#3a3f4a" fill="none"/><path d="M-1000.93-255.9h-.5v-.96h.5z" stroke="#3a3f4a" stroke-width=".05" fill="#3a3f4a"/><path d="M-937.4-256.4l-12.98 7.5v-14.98z" stroke="#3a3f4a" fill="#3a3f4a"/><path d="M-696.08-256.4H-658" stroke="#3a3f4a" fill="none"/><path d="M-696.07-255.9h-.5v-.96h.5z" stroke="#3a3f4a" stroke-width=".05" fill="#3a3f4a"/><path d="M-644.5-256.4l-13 7.5v-14.98z" stroke="#3a3f4a" fill="#3a3f4a"/><path d="M-523.6-206.22v55.52" stroke="#3a3f4a" fill="none"/><path d="M-523.14-206.2h-.95v-.52h.96z" stroke="#3a3f4a" stroke-width=".05" fill="#3a3f4a"/><path d="M-523.6-137.2l-7.5-13h15z" stroke="#3a3f4a" fill="#3a3f4a"/><path d="M-872.13 51.34a6 6 0 0 1 6-6h455.42a6 6 0 0 1 6 6v77.55a6 6 0 0 1-6 6h-455.43a6 6 0 0 1-6-6z" stroke="#003d87" stroke-width="2" fill="#b8cce0"/><use xlink:href="#A" transform="matrix(1,0,0,1,-867.1258306881062,50.344164908656126) translate(107.28888888888888 38.136111111111106)"/><use xlink:href="#B" transform="matrix(1,0,0,1,-867.1258306881062,50.344164908656126) translate(202.66666666666666 38.136111111111106)"/><use xlink:href="#C" transform="matrix(1,0,0,1,-867.1258306881062,50.344164908656126) translate(285.84444444444443 38.136111111111106)"/><use xlink:href="#D" transform="matrix(1,0,0,1,-867.1258306881062,50.344164908656126) translate(79.68757 60.40484222222222)"/><use xlink:href="#E" transform="matrix(1,0,0,1,-867.1258306881062,50.344164908656126) translate(127.78159 60.40484222222222)"/><use xlink:href="#F" transform="matrix(1,0,0,1,-867.1258306881062,50.344164908656126) translate(209.55649 60.40484222222222)"/><use xlink:href="#G" transform="matrix(1,0,0,1,-867.1258306881062,50.344164908656126) translate(239.08585 60.40484222222222)"/><use xlink:href="#v" transform="matrix(1,0,0,1,-867.1258306881062,50.344164908656126) translate(280.51734999999996 60.40484222222222)"/><use xlink:href="#H" transform="matrix(1,0,0,1,-867.1258306881062,50.344164908656126) translate(333.63337 60.40484222222222)"/><path d="M-872.13 224.1a6 6 0 0 1 6-6h455.42a6 6 0 0 1 6 6v77.55a6 6 0 0 1-6 6h-455.43a6 6 0 0 1-6-6z" stroke="#3d4049" stroke-width="2" fill="#c4c6cc"/><g><use xlink:href="#n" transform="matrix(1,0,0,1,-867.1258306881062,223.11316920457557) translate(150.4111111111111 38.136111111111106)"/><use xlink:href="#I" transform="matrix(1,0,0,1,-867.1258306881062,223.11316920457557) translate(214.54444444444442 38.136111111111106)"/><use xlink:href="#J" transform="matrix(1,0,0,1,-867.1258306881062,223.11316920457557) translate(248.07777777777778 38.136111111111106)"/><use xlink:href="#K" transform="matrix(1,0,0,1,-867.1258306881062,223.11316920457557) translate(119.44506999999999 60.40484222222222)"/><use xlink:href="#l" transform="matrix(1,0,0,1,-867.1258306881062,223.11316920457557) translate(170.10030999999998 60.40484222222222)"/><use xlink:href="#L" transform="matrix(1,0,0,1,-867.1258306881062,223.11316920457557) translate(187.69405 60.40484222222222)"/><use xlink:href="#M" transform="matrix(1,0,0,1,-867.1258306881062,223.11316920457557) translate(264.43021 60.40484222222222)"/></g><path d="M-872.13 356.88a6 6 0 0 1 6-6h455.42a6 6 0 0 1 6 6v77.54a6 6 0 0 1-6 6h-455.43a6 6 0 0 1-6-6z" stroke="#3d4049" stroke-width="2" fill="#c4c6cc"/><g><use xlink:href="#N" transform="matrix(1,0,0,1,-867.1258306881062,355.882173500495) translate(33.111111111111114 48.448611111111106)"/><use xlink:href="#O" transform="matrix(1,0,0,1,-867.1258306881062,355.882173500495) translate(236.88888888888889 48.448611111111106)"/><use xlink:href="#I" transform="matrix(1,0,0,1,-867.1258306881062,355.882173500495) translate(249.13333333333333 48.448611111111106)"/><use xlink:href="#P" transform="matrix(1,0,0,1,-867.1258306881062,355.882173500495) translate(282.66666666666663 48.448611111111106)"/><use xlink:href="#O" transform="matrix(1,0,0,1,-867.1258306881062,355.882173500495) translate(364.44444444444446 48.448611111111106)"/><use xlink:href="#Q" transform="matrix(1,0,0,1,-867.1258306881062,355.882173500495) translate(376.68888888888887 48.448611111111106)"/></g><path d="M-523.6-36.38v.95m0 3.8v1.9m0 3.8v1.9m0 3.8v1.9m0 3.8v1.9m0 3.8v1.9m0 3.8v1.9m0 3.81v.96a.2.2 0 0 0 .18.2.2.2 0 0 1 .2.18v1.1m0 4.3v2.17m0 4.3v2.17m0 4.32v2.15m0 4.32v1.08" stroke="#3a3f4a" fill="none"/><path d="M-523.14-36.37h-.95v-.5h.96z" stroke="#3a3f4a" stroke-width=".05" fill="#3a3f4a"/><path d="M-523.22 43.34l-7.5-13h15z" stroke="#3a3f4a" fill="#3a3f4a"/><path d="M-504.85-23.18a6 6 0 0 1 6-6h50a6 6 0 0 1 6 6v42.52a6 6 0 0 1-6 6h-50a6 6 0 0 1-6-6z" fill="none"/><g><use xlink:href="#R" transform="matrix(1,0,0,1,-499.8523590644645,-24.181390646899416) translate(0 18.25111111111111)"/><use xlink:href="#S" transform="matrix(1,0,0,1,-499.8523590644645,-24.181390646899416) translate(0 40.50888888888889)"/></g><path d="M-638.42 136.4v66.22" stroke="#3a414a" fill="none"/><path d="M-637.94 136.4h-.95v-.5h.96z" stroke="#3a414a" stroke-width=".05" fill="#3a414a"/><path d="M-638.42 216.1l-7.5-12.98h15z" stroke="#3a414a" fill="#3a414a"/><path d="M-638.42 309.15v26.24" stroke="#3a414a" fill="none"/><path d="M-637.94 309.17h-.95v-.52h.96z" stroke="#3a414a" stroke-width=".05" fill="#3a414a"/><path d="M-638.42 348.88l-7.5-13h15z" stroke="#3a414a" fill="#3a414a"/><path d="M-504.85-184.73a6 6 0 0 1 6-6h52.32a6 6 0 0 1 6 6v20.27a6 6 0 0 1-6 6h-52.32a6 6 0 0 1-6-6z" fill="none"/><g><use xlink:href="#T" transform="matrix(1,0,0,1,-499.8523590644645,-185.72727253313562) translate(0 18.38)"/></g><path d="M-1001.35-284.97a6 6 0 0 1 6-6h36.45a6 6 0 0 1 6 6v20.27a6 6 0 0 1-6 6h-36.45a6 6 0 0 1-6-6z" fill="none"/><g><use xlink:href="#U" transform="matrix(1,0,0,1,-996.345042643575,-285.97154926950384) translate(0 18.38)"/></g><path d="M-697.73-284.97a6 6 0 0 1 6-6h37.26a6 6 0 0 1 6 6v20.27a6 6 0 0 1-6 6h-37.26a6 6 0 0 1-6-6z" fill="none"/><g><use xlink:href="#V" transform="matrix(1,0,0,1,-692.7319261269233,-285.97154926950384) translate(0 18.38)"/></g><path d="M-625.13 162.37a6 6 0 0 1 6-6h66.33a6 6 0 0 1 6 6v20.26a6 6 0 0 1-6 6h-66.33a6 6 0 0 1-6-6z" fill="none"/><g><use xlink:href="#W" transform="matrix(1,0,0,1,-620.125851987211,161.3655385971094) translate(0 18.38)"/></g><path d="M-1216.27 217.04a6 6 0 0 1 6-6h288.92a6 6 0 0 1 6 6v139.78a6 6 0 0 1-6 6h-288.92a6 6 0 0 1-6-6z" stroke="#3d4049" stroke-width="2" fill="#c4c6cc"/><g><use xlink:href="#X" transform="matrix(1,0,0,1,-1211.2647665347595,216.0361238471063) translate(5 37.765017361111106)"/><use xlink:href="#Y" transform="matrix(1,0,0,1,-1211.2647665347595,216.0361238471063) translate(88.62222222222223 37.765017361111106)"/><use xlink:href="#Z" transform="matrix(1,0,0,1,-1211.2647665347595,216.0361238471063) translate(3.944444444444444 65.58723958333333)"/><use xlink:href="#aa" transform="matrix(1,0,0,1,-1211.2647665347595,216.0361238471063) translate(15 65.58723958333333)"/><use xlink:href="#ab" transform="matrix(1,0,0,1,-1211.2647665347595,216.0361238471063) translate(39.37777777777778 65.58723958333333)"/><use xlink:href="#ac" transform="matrix(1,0,0,1,-1211.2647665347595,216.0361238471063) translate(86.26666666666667 65.58723958333333)"/><use xlink:href="#ad" transform="matrix(1,0,0,1,-1211.2647665347595,216.0361238471063) translate(135.04444444444445 65.58723958333333)"/><use xlink:href="#ae" transform="matrix(1,0,0,1,-1211.2647665347595,216.0361238471063) translate(169.8 65.58723958333333)"/><use xlink:href="#Z" transform="matrix(1,0,0,1,-1211.2647665347595,216.0361238471063) translate(3.944444444444444 93.40946180555555)"/><use xlink:href="#af" transform="matrix(1,0,0,1,-1211.2647665347595,216.0361238471063) translate(15 93.40946180555555)"/><use xlink:href="#ag" transform="matrix(1,0,0,1,-1211.2647665347595,216.0361238471063) translate(114.55555555555557 93.40946180555555)"/><use xlink:href="#Z" transform="matrix(1,0,0,1,-1211.2647665347595,216.0361238471063) translate(3.944444444444444 121.23168402777777)"/><use xlink:href="#ah" transform="matrix(1,0,0,1,-1211.2647665347595,216.0361238471063) translate(15 121.23168402777777)"/><use xlink:href="#ai" transform="matrix(1,0,0,1,-1211.2647665347595,216.0361238471063) translate(115.33333333333334 121.23168402777777)"/></g><defs><path fill="#3a3f4a" d="M518-80c-3 23 6 56-5 71-33 14-79 19-135 19C211 10 40-87 40-332c0-200 138-339 351-339 67 0 106 7 128 18 3 1 5 4 5 8v67c0 6-4 6-7 5-28-15-73-23-128-23-157 0-264 102-264 262 0 209 157 268 262 268 51 0 88-4 125-18 4-1 6-1 6 4" id="aj"/><path fill="#3a3f4a" d="M265-496c141 0 228 108 228 252 0 152-94 254-228 254C104 10 35-120 35-243c0-141 90-253 230-253zm-4 72c-84 0-142 72-142 179 0 102 53 183 148 183 71 0 141-56 141-180 0-93-43-182-147-182" id="ak"/><path fill="#3a3f4a" d="M135-486c16 4 10 33 14 53 78-81 227-91 283 10 42-41 94-73 167-73 74 0 162 39 162 191V-6c0 4-2 6-7 6h-69c-5 0-7-2-7-7v-292c0-68-31-123-102-123-50 0-91 22-123 58 11 108 2 241 5 357 0 5-2 7-7 7h-70c-5 0-7-2-7-7v-295c0-76-35-120-100-120-47 0-83 18-121 56V-6c0 4-1 6-6 6H76c-5 0-6-2-6-7-2-154 4-327-4-473 0-4 1-6 6-6h63" id="al"/><path fill="#3a3f4a" d="M440-237c-86 8-224 2-321 4-1 95 54 170 167 170 44 0 86-8 125-27 3-2 5 0 5 4-2 21 5 54-5 67-34 17-78 29-141 29C97 10 35-117 35-239c0-140 82-257 221-257 163 0 209 131 191 253 0 3-3 6-7 6zm-134-58c58-5 64 10 65-13 0-36-24-119-118-119-83 0-124 65-133 132h186" id="am"/><path fill="#3a3f4a" d="M70-486h64c6 0 7 2 9 7 4 12 7 47 8 69 35-48 97-86 161-86 5 0 7 1 7 7v72c0 5-1 6-7 6-69-1-132 33-157 73L154-6c0 5-2 6-6 6H77c-5 0-7-2-7-7-2-155 5-327-5-473 0-4 1-6 5-6" id="an"/><path fill="#3a3f4a" d="M395-75v62c0 4 0 6-4 7-33 13-72 16-109 16C119 10 35-106 35-241c0-178 167-297 356-242 9 17 2 49 4 72 0 5-3 5-7 4-129-48-272 19-268 163C124-87 258-37 389-79c5-1 6 1 6 4" id="ao"/><g id="a"><use transform="matrix(0.022222222222222223,0,0,0.022222222222222223,0,0)" xlink:href="#aj"/><use transform="matrix(0.022222222222222223,0,0,0.022222222222222223,12.155555555555557,0)" xlink:href="#ak"/><use transform="matrix(0.022222222222222223,0,0,0.022222222222222223,23.866666666666667,0)" xlink:href="#al"/><use transform="matrix(0.022222222222222223,0,0,0.022222222222222223,42.355555555555554,0)" xlink:href="#al"/><use transform="matrix(0.022222222222222223,0,0,0.022222222222222223,60.84444444444445,0)" xlink:href="#am"/><use transform="matrix(0.022222222222222223,0,0,0.022222222222222223,71.55555555555556,0)" xlink:href="#an"/><use transform="matrix(0.022222222222222223,0,0,0.022222222222222223,78.8,0)" xlink:href="#ao"/><use transform="matrix(0.022222222222222223,0,0,0.022222222222222223,88.13333333333333,0)" xlink:href="#am"/></g><path fill="#3a3f4a" d="M458 0H88c-6 0-8-3-8-8v-646c0-4 1-7 6-7h72c4 0 5 2 5 6v579h310c5 0 6 3 5 6L466-6c-1 5-4 6-8 6" id="ap"/><path fill="#3a3f4a" d="M323-75v-157c-14-2-36-4-66-4-97 0-144 33-144 89 0 45 31 89 119 89 32 0 62-5 91-17zm81-233c0 91 1 191 0 275C258 41 36 32 31-147c-4-128 147-165 292-151 2-57-3-124-113-124-48 0-92 11-127 30-3 1-7 0-7-5 3-22-6-55 5-69 39-19 89-30 142-30 128 0 181 84 181 188" id="aq"/><path fill="#3a3f4a" d="M11-486h79c4 0 6 2 7 5 83 220 124 334 138 379 32-92 74-207 135-379 2-3 4-5 8-5h71c5 0 6 3 4 7C379-262 276-6 181 208c-18 15-59 7-86 13-5 0-5-3-3-8 29-61 66-142 99-221 2-4 2-7 0-13C167-81 67-324 6-480c-2-4 1-6 5-6" id="ar"/><g id="b"><use transform="matrix(0.022222222222222223,0,0,0.022222222222222223,0,0)" xlink:href="#ap"/><use transform="matrix(0.022222222222222223,0,0,0.022222222222222223,11.155555555555557,0)" xlink:href="#aq"/><use transform="matrix(0.022222222222222223,0,0,0.022222222222222223,21.68888888888889,0)" xlink:href="#ar"/><use transform="matrix(0.022222222222222223,0,0,0.022222222222222223,32.044444444444444,0)" xlink:href="#am"/><use transform="matrix(0.022222222222222223,0,0,0.022222222222222223,42.75555555555556,0)" xlink:href="#an"/></g><path fill="#3a3f4a" d="M279-65c-3 20 7 50-6 61C177 29 81 9 81-121v-293H13c-6-1-7-3-7-8v-57c0-5 2-7 7-7h68c1-37 5-106 9-128 1-4 3-6 7-7l68-11c4-1 6 0 6 4-3 35-6 93-6 142h106c4 0 6 2 6 7v59c0 4-2 6-6 6H165v281c-7 67 51 85 108 64 3-1 6-1 6 4" id="as"/><path fill="#3a3f4a" d="M217-5c-5 16-25 15-51 15-49 0-96-17-96-111v-610c0-5 2-6 7-6h70c5 0 6 2 6 6v603c0 48 26 52 60 45 3 0 4 2 4 6v52" id="at"/><path fill="#3a3f4a" d="M412 69c-1-91-145-77-239-84-41 29-67 71-67 93 0 46 55 93 147 93 110 0 159-52 159-102zM236-432c-63 0-104 41-104 105 0 61 36 105 103 105 63 0 102-38 102-103 0-58-31-107-101-107zm1-64c80 0 148 12 237 10 5 0 6 2 6 6v57c0 4-1 6-6 6-26 0-68-2-92-4 18 19 35 51 35 97-1 129-112 184-236 159-12 30-4 58 13 78l102 5c124 6 194 51 194 139 0 100-95 179-242 179-148 0-221-78-221-152 0-34 29-79 98-137-29-39-32-95-7-138-41-27-68-72-68-135 0-93 69-170 187-170" id="au"/><g id="c"><use transform="matrix(0.022222222222222223,0,0,0.022222222222222223,0,0)" xlink:href="#aj"/><use transform="matrix(0.022222222222222223,0,0,0.022222222222222223,12.377777777777778,0)" xlink:href="#aq"/><use transform="matrix(0.022222222222222223,0,0,0.022222222222222223,22.91111111111111,0)" xlink:href="#as"/><use transform="matrix(0.022222222222222223,0,0,0.022222222222222223,29.71111111111111,0)" xlink:href="#aq"/><use transform="matrix(0.022222222222222223,0,0,0.022222222222222223,40.24444444444444,0)" xlink:href="#at"/><use transform="matrix(0.022222222222222223,0,0,0.022222222222222223,45.599999999999994,0)" xlink:href="#ak"/><use transform="matrix(0.022222222222222223,0,0,0.022222222222222223,57.17777777777778,0)" xlink:href="#au"/></g><path fill="#3a3f4a" d="M212 10C143 10 82-5 43-28c-5-2-6-6-6-12v-72c0-4 3-6 7-3 52 35 116 49 171 49 96 0 140-43 140-103 0-47-27-82-118-123l-44-18C69-363 41-426 41-493c0-104 80-178 215-178 63 0 117 10 148 27 11 16 2 52 5 77 0 4-3 7-8 4-35-22-90-33-147-33-104 0-132 54-132 96 0 45 26 79 115 117l43 18c123 52 159 114 159 189 0 108-81 186-227 186" id="av"/><path fill="#3a3f4a" d="M267 0h-81c-6 0-7-2-9-5C156-66 33-412 9-479c-1-4-1-7 4-7h77c5 0 6 2 8 6 84 253 120 362 131 403h2c12-41 49-148 137-404 2-4 4-5 8-5h69c3 0 6 2 4 7C420-401 298-66 276-6c-2 4-4 6-9 6" id="aw"/><path fill="#3a3f4a" d="M70-8v-471c0-5 2-7 7-7h71c4 0 6 1 6 6V-7c0 5-1 7-7 7H78c-5 0-8-2-8-8zm42-574c-31 0-50-21-50-51s21-51 51-51c32 0 50 22 50 51 0 30-20 51-51 51" id="ax"/><g id="d"><use transform="matrix(0.022222222222222223,0,0,0.022222222222222223,0,0)" xlink:href="#av"/><use transform="matrix(0.022222222222222223,0,0,0.022222222222222223,10.822222222222221,0)" xlink:href="#am"/><use transform="matrix(0.022222222222222223,0,0,0.022222222222222223,21.53333333333333,0)" xlink:href="#an"/><use transform="matrix(0.022222222222222223,0,0,0.022222222222222223,29.577777777777772,0)" xlink:href="#aw"/><use transform="matrix(0.022222222222222223,0,0,0.022222222222222223,39.82222222222222,0)" xlink:href="#ax"/><use transform="matrix(0.022222222222222223,0,0,0.022222222222222223,44.82222222222222,0)" xlink:href="#ao"/><use transform="matrix(0.022222222222222223,0,0,0.022222222222222223,54.15555555555556,0)" xlink:href="#am"/></g><g id="e"><use transform="matrix(0.022222222222222223,0,0,0.022222222222222223,0,0)" xlink:href="#at"/><use transform="matrix(0.022222222222222223,0,0,0.022222222222222223,5.444444444444445,0)" xlink:href="#aq"/><use transform="matrix(0.022222222222222223,0,0,0.022222222222222223,15.977777777777778,0)" xlink:href="#ar"/><use transform="matrix(0.022222222222222223,0,0,0.022222222222222223,26.333333333333336,0)" xlink:href="#am"/><use transform="matrix(0.022222222222222223,0,0,0.022222222222222223,37.04444444444445,0)" xlink:href="#an"/></g><path fill="#3a3f4a" d="M80-8v-644c0-5 1-7 6-8 25-1 76-3 175-3 226 0 348 131 348 321C609-89 419 2 251 2 195 2 120 1 85 0c-4 0-5-3-5-8zm83-579v513c210 22 361-54 361-267 0-166-114-248-265-248-35 0-67 1-96 2" id="ay"/><g id="f"><use transform="matrix(0.022222222222222223,0,0,0.022222222222222223,0,0)" xlink:href="#ay"/><use transform="matrix(0.022222222222222223,0,0,0.022222222222222223,14.622222222222224,0)" xlink:href="#am"/><use transform="matrix(0.022222222222222223,0,0,0.022222222222222223,25.333333333333336,0)" xlink:href="#at"/><use transform="matrix(0.022222222222222223,0,0,0.022222222222222223,30.68888888888889,0)" xlink:href="#ax"/><use transform="matrix(0.022222222222222223,0,0,0.022222222222222223,35.84444444444445,0)" xlink:href="#aw"/><use transform="matrix(0.022222222222222223,0,0,0.022222222222222223,46.155555555555566,0)" xlink:href="#am"/><use transform="matrix(0.022222222222222223,0,0,0.022222222222222223,56.86666666666668,0)" xlink:href="#an"/><use transform="matrix(0.022222222222222223,0,0,0.022222222222222223,65.04444444444445,0)" xlink:href="#ar"/></g><path d="M212 10C143 10 82-5 43-28c-5-2-6-6-6-12v-72c0-4 3-6 7-3 52 35 116 49 171 49 96 0 140-43 140-103 0-47-27-82-118-123l-44-18C69-363 41-426 41-493c0-104 80-178 215-178 63 0 117 10 148 27 11 16 2 52 5 77 0 4-3 7-8 4-35-22-90-33-147-33-104 0-132 54-132 96 0 45 26 79 115 117l43 18c123 52 159 114 159 189 0 108-81 186-227 186" id="az"/><path d="M323-75v-157c-14-2-36-4-66-4-97 0-144 33-144 89 0 45 31 89 119 89 32 0 62-5 91-17zm81-233c0 91 1 191 0 275C258 41 36 32 31-147c-4-128 147-165 292-151 2-57-3-124-113-124-48 0-92 11-127 30-3 1-7 0-7-5 3-22-6-55 5-69 39-19 89-30 142-30 128 0 181 84 181 188" id="aA"/><g id="g"><use transform="matrix(0.022222222222222223,0,0,0.022222222222222223,0,0)" xlink:href="#az"/><use transform="matrix(0.022222222222222223,0,0,0.022222222222222223,11,0)" xlink:href="#aA"/><use transform="matrix(0.022222222222222223,0,0,0.022222222222222223,21.53333333333333,0)" xlink:href="#aA"/><use transform="matrix(0.022222222222222223,0,0,0.022222222222222223,32.06666666666666,0)" xlink:href="#az"/></g><path d="M80-8v-644c0-5 1-7 6-8 25-1 76-3 175-3 226 0 348 131 348 321C609-89 419 2 251 2 195 2 120 1 85 0c-4 0-5-3-5-8zm83-579v513c210 22 361-54 361-267 0-166-114-248-265-248-35 0-67 1-96 2" id="aB"/><path d="M279-65c-3 20 7 50-6 61C177 29 81 9 81-121v-293H13c-6-1-7-3-7-8v-57c0-5 2-7 7-7h68c1-37 5-106 9-128 1-4 3-6 7-7l68-11c4-1 6 0 6 4-3 35-6 93-6 142h106c4 0 6 2 6 7v59c0 4-2 6-6 6H165v281c-7 67 51 85 108 64 3-1 6-1 6 4" id="aC"/><g id="h"><use transform="matrix(0.022222222222222223,0,0,0.022222222222222223,0,0)" xlink:href="#aB"/><use transform="matrix(0.022222222222222223,0,0,0.022222222222222223,14.422222222222222,0)" xlink:href="#aA"/><use transform="matrix(0.022222222222222223,0,0,0.022222222222222223,24.955555555555556,0)" xlink:href="#aC"/><use transform="matrix(0.022222222222222223,0,0,0.022222222222222223,31.755555555555553,0)" xlink:href="#aA"/></g><path d="M486-70L475-6c-1 5-3 6-7 6H88c-7 0-8-2-8-8v-646c0-5 2-7 7-7h365c5 0 6 1 7 6l8 63c1 4 0 7-5 7H163v209h270c4 0 6 2 6 6v64c0 5-3 6-6 6H163v224h318c5 0 6 2 5 6" id="aD"/><path d="M158-243L3-478c-3-4-1-8 3-8h82c6 0 8 2 10 6 40 62 77 127 118 188l122-189c2-4 4-5 8-5h74c4 0 6 3 3 7-39 58-115 172-159 232C304-187 395-55 430-7c3 3 1 7-4 7h-84c-5 0-8-2-10-6-42-64-81-129-124-192L84-5c-2 4-3 5-8 5H2c-5 0-7-3-4-7 46-66 114-171 160-236" id="aE"/><path d="M256-496c148 0 234 102 234 236C490-61 327 28 153 6v200c0 4 0 6-5 7-23 2-69 7-73 8-4 0-5-1-5-6v-671c35-13 101-40 186-40zm-10 73c-35 0-65 6-93 16v339c131 25 252-33 252-187 0-102-58-168-159-168" id="aF"/><path d="M265-496c141 0 228 108 228 252 0 152-94 254-228 254C104 10 35-120 35-243c0-141 90-253 230-253zm-4 72c-84 0-142 72-142 179 0 102 53 183 148 183 71 0 141-56 141-180 0-93-43-182-147-182" id="aG"/><path d="M70-486h64c6 0 7 2 9 7 4 12 7 47 8 69 35-48 97-86 161-86 5 0 7 1 7 7v72c0 5-1 6-7 6-69-1-132 33-157 73L154-6c0 5-2 6-6 6H77c-5 0-7-2-7-7-2-155 5-327-5-473 0-4 1-6 5-6" id="aH"/><g id="i"><use transform="matrix(0.022222222222222223,0,0,0.022222222222222223,0,0)" xlink:href="#aD"/><use transform="matrix(0.022222222222222223,0,0,0.022222222222222223,12.088888888888889,0)" xlink:href="#aE"/><use transform="matrix(0.022222222222222223,0,0,0.022222222222222223,21.711111111111112,0)" xlink:href="#aF"/><use transform="matrix(0.022222222222222223,0,0,0.022222222222222223,33.55555555555556,0)" xlink:href="#aG"/><use transform="matrix(0.022222222222222223,0,0,0.022222222222222223,45.266666666666666,0)" xlink:href="#aH"/><use transform="matrix(0.022222222222222223,0,0,0.022222222222222223,53.37777777777778,0)" xlink:href="#aC"/></g><path d="M11-486h79c4 0 6 2 7 5 83 220 124 334 138 379 32-92 74-207 135-379 2-3 4-5 8-5h71c5 0 6 3 4 7C379-262 276-6 181 208c-18 15-59 7-86 13-5 0-5-3-3-8 29-61 66-142 99-221 2-4 2-7 0-13C167-81 67-324 6-480c-2-4 1-6 5-6" id="aI"/><path d="M134-486c18 5 10 28 15 56 44-44 95-66 153-66 71 0 163 35 163 193V-7c0 5-2 7-7 7h-70c-5 0-7-2-7-8v-287c0-76-33-127-103-127-51 0-93 23-125 61V-7c0 5-1 7-6 7H76c-4 0-6-2-6-7-2-155 4-326-4-473 0-4 1-6 6-6h62" id="aJ"/><path d="M395-75v62c0 4 0 6-4 7-33 13-72 16-109 16C119 10 35-106 35-241c0-178 167-297 356-242 9 17 2 49 4 72 0 5-3 5-7 4-129-48-272 19-268 163C124-87 258-37 389-79c5-1 6 1 6 4" id="aK"/><g id="j"><use transform="matrix(0.01674,0,0,0.01674,0,0)" xlink:href="#az"/><use transform="matrix(0.01674,0,0,0.01674,7.7171400000000006,0)" xlink:href="#aI"/><use transform="matrix(0.01674,0,0,0.01674,15.4845,0)" xlink:href="#aJ"/><use transform="matrix(0.01674,0,0,0.01674,24.4404,0)" xlink:href="#aK"/></g><path d="M79-486c-13-159 53-266 200-234 5 1 5 4 5 8v59c0 4-2 6-6 5-74-15-114 3-116 117v45h96c4 0 6 2 6 5v60c0 5-2 6-6 7h-96V-7c0 4-1 7-6 7H85c-4 0-6-2-6-7v-407H14c-4 0-6-2-6-7v-59c0-4 2-6 6-6h65" id="aL"/><path d="M440-237c-86 8-224 2-321 4-1 95 54 170 167 170 44 0 86-8 125-27 3-2 5 0 5 4-2 21 5 54-5 67-34 17-78 29-141 29C97 10 35-117 35-239c0-140 82-257 221-257 163 0 209 131 191 253 0 3-3 6-7 6zm-134-58c58-5 64 10 65-13 0-36-24-119-118-119-83 0-124 65-133 132h186" id="aM"/><path d="M451-27C262 61 35-3 35-239c0-166 143-285 335-251v-221c0-5 2-6 6-6h72c5 0 6 2 6 5 1 225-3 456 2 678 0 4-1 5-5 7zm-81-49v-338c-134-40-254 46-250 171C125-80 243-39 370-76" id="aN"/><path d="M317-398c-28-17-74-29-116-29-66 0-88 32-88 62s18 51 93 81c101 39 142 80 142 151 0 92-75 143-179 143C114 10 64-2 35-19c-11-16-2-52-5-76 0-5 3-7 6-5 59 51 230 63 230-25 0-37-22-59-91-86C75-249 33-290 33-361c0-72 61-135 170-135 55 0 96 10 117 22 11 15 2 48 5 71 0 5-3 8-8 5" id="aO"/><g id="k"><use transform="matrix(0.01674,0,0,0.01674,0,0)" xlink:href="#aL"/><use transform="matrix(0.01674,0,0,0.01674,4.46958,0)" xlink:href="#aM"/><use transform="matrix(0.01674,0,0,0.01674,12.68892,0)" xlink:href="#aM"/><use transform="matrix(0.01674,0,0,0.01674,20.90826,0)" xlink:href="#aN"/><use transform="matrix(0.01674,0,0,0.01674,29.86416,0)" xlink:href="#aO"/></g><g id="l"><use transform="matrix(0.01674,0,0,0.01674,0,0)" xlink:href="#aC"/><use transform="matrix(0.01674,0,0,0.01674,4.904820000000001,0)" xlink:href="#aG"/></g><g id="m"><use transform="matrix(0.01674,0,0,0.01674,0,0)" xlink:href="#az"/><use transform="matrix(0.01674,0,0,0.01674,8.2863,0)" xlink:href="#aA"/><use transform="matrix(0.01674,0,0,0.01674,16.22106,0)" xlink:href="#aA"/><use transform="matrix(0.01674,0,0,0.01674,24.155820000000002,0)" xlink:href="#az"/></g><path d="M416-208H162L90-6c-1 4-3 6-8 6H14C9 0 7-3 8-8l218-607c3-8 6-15 7-41 0-3 2-5 5-5h98c4 0 5 1 6 5L577-7c2 4 1 7-4 7h-76c-4 0-6-2-8-5zm-231-77h208c-23-65-84-242-105-308-17 64-65 198-103 308" id="aP"/><path d="M77-717h70c5 0 7 0 7 6v235c170-67 342 39 336 214C482-30 279 53 76-10c-4-1-6-5-6-9v-692c0-5 2-6 7-6zm328 462c0-102-60-168-156-168-43 0-70 7-95 17v336c132 31 251-31 251-185" id="aQ"/><g id="n"><use transform="matrix(0.022222222222222223,0,0,0.022222222222222223,0,0)" xlink:href="#aP"/><use transform="matrix(0.022222222222222223,0,0,0.022222222222222223,13.088888888888889,0)" xlink:href="#aN"/><use transform="matrix(0.022222222222222223,0,0,0.022222222222222223,24.733333333333334,0)" xlink:href="#aG"/><use transform="matrix(0.022222222222222223,0,0,0.022222222222222223,36.44444444444444,0)" xlink:href="#aQ"/><use transform="matrix(0.022222222222222223,0,0,0.022222222222222223,48.28888888888889,0)" xlink:href="#aM"/></g><path d="M518-80c-3 23 6 56-5 71-33 14-79 19-135 19C211 10 40-87 40-332c0-200 138-339 351-339 67 0 106 7 128 18 3 1 5 4 5 8v67c0 6-4 6-7 5-28-15-73-23-128-23-157 0-264 102-264 262 0 209 157 268 262 268 51 0 88-4 125-18 4-1 6-1 6 4" id="aR"/><path d="M135-486c16 4 10 33 14 53 78-81 227-91 283 10 42-41 94-73 167-73 74 0 162 39 162 191V-6c0 4-2 6-7 6h-69c-5 0-7-2-7-7v-292c0-68-31-123-102-123-50 0-91 22-123 58 11 108 2 241 5 357 0 5-2 7-7 7h-70c-5 0-7-2-7-7v-295c0-76-35-120-100-120-47 0-83 18-121 56V-6c0 4-1 6-6 6H76c-5 0-6-2-6-7-2-154 4-327-4-473 0-4 1-6 6-6h63" id="aS"/><g id="o"><use transform="matrix(0.022222222222222223,0,0,0.022222222222222223,0,0)" xlink:href="#aR"/><use transform="matrix(0.022222222222222223,0,0,0.022222222222222223,12.155555555555557,0)" xlink:href="#aG"/><use transform="matrix(0.022222222222222223,0,0,0.022222222222222223,23.866666666666667,0)" xlink:href="#aS"/><use transform="matrix(0.022222222222222223,0,0,0.022222222222222223,42.355555555555554,0)" xlink:href="#aS"/><use transform="matrix(0.022222222222222223,0,0,0.022222222222222223,60.84444444444445,0)" xlink:href="#aM"/><use transform="matrix(0.022222222222222223,0,0,0.022222222222222223,71.55555555555556,0)" xlink:href="#aH"/><use transform="matrix(0.022222222222222223,0,0,0.022222222222222223,78.8,0)" xlink:href="#aK"/><use transform="matrix(0.022222222222222223,0,0,0.022222222222222223,88.13333333333333,0)" xlink:href="#aM"/></g><path d="M217-5c-5 16-25 15-51 15-49 0-96-17-96-111v-610c0-5 2-6 7-6h70c5 0 6 2 6 6v603c0 48 26 52 60 45 3 0 4 2 4 6v52" id="aT"/><path d="M412 69c-1-91-145-77-239-84-41 29-67 71-67 93 0 46 55 93 147 93 110 0 159-52 159-102zM236-432c-63 0-104 41-104 105 0 61 36 105 103 105 63 0 102-38 102-103 0-58-31-107-101-107zm1-64c80 0 148 12 237 10 5 0 6 2 6 6v57c0 4-1 6-6 6-26 0-68-2-92-4 18 19 35 51 35 97-1 129-112 184-236 159-12 30-4 58 13 78l102 5c124 6 194 51 194 139 0 100-95 179-242 179-148 0-221-78-221-152 0-34 29-79 98-137-29-39-32-95-7-138-41-27-68-72-68-135 0-93 69-170 187-170" id="aU"/><g id="p"><use transform="matrix(0.01674,0,0,0.01674,0,0)" xlink:href="#aR"/><use transform="matrix(0.01674,0,0,0.01674,9.324180000000002,0)" xlink:href="#aA"/><use transform="matrix(0.01674,0,0,0.01674,17.258940000000003,0)" xlink:href="#aC"/><use transform="matrix(0.01674,0,0,0.01674,22.381380000000004,0)" xlink:href="#aA"/><use transform="matrix(0.01674,0,0,0.01674,30.316140000000004,0)" xlink:href="#aT"/><use transform="matrix(0.01674,0,0,0.01674,34.350480000000005,0)" xlink:href="#aG"/><use transform="matrix(0.01674,0,0,0.01674,43.07202000000001,0)" xlink:href="#aU"/></g><path d="M153-367V-6c0 5-1 6-6 6H77c-5 0-7-2-7-7v-704c0-4 1-6 6-6h72c4 0 5 1 5 5l1 274c41-38 89-58 148-58 71 0 163 35 163 193V-7c0 5-2 7-7 7h-70c-5 0-7-2-7-8v-286c0-77-33-128-103-128-49 0-93 20-125 55" id="aV"/><g id="q"><use transform="matrix(0.01674,0,0,0.01674,0,0)" xlink:href="#aK"/><use transform="matrix(0.01674,0,0,0.01674,7.13124,0)" xlink:href="#aV"/><use transform="matrix(0.01674,0,0,0.01674,16.10388,0)" xlink:href="#aA"/><use transform="matrix(0.01674,0,0,0.01674,24.03864,0)" xlink:href="#aJ"/><use transform="matrix(0.01674,0,0,0.01674,32.676480000000005,0)" xlink:href="#aU"/><use transform="matrix(0.01674,0,0,0.01674,40.87908,0)" xlink:href="#aM"/></g><path d="M70-8v-471c0-5 2-7 7-7h71c4 0 6 1 6 6V-7c0 5-1 7-7 7H78c-5 0-8-2-8-8zm42-574c-31 0-50-21-50-51s21-51 51-51c32 0 50 22 50 51 0 30-20 51-51 51" id="aW"/><g id="r"><use transform="matrix(0.01674,0,0,0.01674,0,0)" xlink:href="#aG"/><use transform="matrix(0.01674,0,0,0.01674,8.82198,0)" xlink:href="#aH"/><use transform="matrix(0.01674,0,0,0.01674,14.26248,0)" xlink:href="#aW"/><use transform="matrix(0.01674,0,0,0.01674,17.8281,0)" xlink:href="#aU"/><use transform="matrix(0.01674,0,0,0.01674,26.0307,0)" xlink:href="#aW"/><use transform="matrix(0.01674,0,0,0.01674,29.7972,0)" xlink:href="#aJ"/></g><g id="s"><use transform="matrix(0.022222222222222223,0,0,0.022222222222222223,0,0)" xlink:href="#aR"/><use transform="matrix(0.022222222222222223,0,0,0.022222222222222223,12.377777777777778,0)" xlink:href="#aA"/><use transform="matrix(0.022222222222222223,0,0,0.022222222222222223,22.91111111111111,0)" xlink:href="#aC"/><use transform="matrix(0.022222222222222223,0,0,0.022222222222222223,29.71111111111111,0)" xlink:href="#aA"/><use transform="matrix(0.022222222222222223,0,0,0.022222222222222223,40.24444444444444,0)" xlink:href="#aT"/><use transform="matrix(0.022222222222222223,0,0,0.022222222222222223,45.599999999999994,0)" xlink:href="#aG"/><use transform="matrix(0.022222222222222223,0,0,0.022222222222222223,57.17777777777778,0)" xlink:href="#aU"/></g><path d="M267 0h-81c-6 0-7-2-9-5C156-66 33-412 9-479c-1-4-1-7 4-7h77c5 0 6 2 8 6 84 253 120 362 131 403h2c12-41 49-148 137-404 2-4 4-5 8-5h69c3 0 6 2 4 7C420-401 298-66 276-6c-2 4-4 6-9 6" id="aX"/><g id="t"><use transform="matrix(0.022222222222222223,0,0,0.022222222222222223,0,0)" xlink:href="#az"/><use transform="matrix(0.022222222222222223,0,0,0.022222222222222223,10.822222222222221,0)" xlink:href="#aM"/><use transform="matrix(0.022222222222222223,0,0,0.022222222222222223,21.53333333333333,0)" xlink:href="#aH"/><use transform="matrix(0.022222222222222223,0,0,0.022222222222222223,29.577777777777772,0)" xlink:href="#aX"/><use transform="matrix(0.022222222222222223,0,0,0.022222222222222223,39.82222222222222,0)" xlink:href="#aW"/><use transform="matrix(0.022222222222222223,0,0,0.022222222222222223,44.82222222222222,0)" xlink:href="#aK"/><use transform="matrix(0.022222222222222223,0,0,0.022222222222222223,54.15555555555556,0)" xlink:href="#aM"/></g><g id="u"><use transform="matrix(0.01674,0,0,0.01674,0,0)" xlink:href="#az"/><use transform="matrix(0.01674,0,0,0.01674,8.00172,0)" xlink:href="#aC"/><use transform="matrix(0.01674,0,0,0.01674,12.906540000000001,0)" xlink:href="#aG"/><use transform="matrix(0.01674,0,0,0.01674,21.728520000000003,0)" xlink:href="#aH"/><use transform="matrix(0.01674,0,0,0.01674,27.185760000000002,0)" xlink:href="#aM"/></g><g id="v"><use transform="matrix(0.01674,0,0,0.01674,0,0)" xlink:href="#aK"/><use transform="matrix(0.01674,0,0,0.01674,7.29864,0)" xlink:href="#aA"/><use transform="matrix(0.01674,0,0,0.01674,15.2334,0)" xlink:href="#aC"/><use transform="matrix(0.01674,0,0,0.01674,20.35584,0)" xlink:href="#aA"/><use transform="matrix(0.01674,0,0,0.01674,28.2906,0)" xlink:href="#aT"/><use transform="matrix(0.01674,0,0,0.01674,32.32494,0)" xlink:href="#aG"/><use transform="matrix(0.01674,0,0,0.01674,41.04648,0)" xlink:href="#aU"/></g><g id="w"><use transform="matrix(0.01674,0,0,0.01674,0,0)" xlink:href="#aN"/><use transform="matrix(0.01674,0,0,0.01674,8.83872,0)" xlink:href="#aA"/><use transform="matrix(0.01674,0,0,0.01674,16.77348,0)" xlink:href="#aC"/><use transform="matrix(0.01674,0,0,0.01674,21.89592,0)" xlink:href="#aA"/></g><path d="M112-655c1-6 3-6 7-6h111c5 0 6 2 8 6 35 103 154 463 177 549 23-83 156-447 190-549 1-4 2-6 7-6h108c5 0 5 1 6 5L760-6c1 4-2 6-6 6h-74c-5 0-7-1-7-5-10-230-18-538-20-597-24 90-158 468-200 596-1 5-4 6-8 6h-70c-6 0-8-1-9-6-54-166-156-499-187-597-1 87-19 387-30 597 0 5-2 6-7 6H74c-5 0-6-1-6-6" id="aY"/><path d="M80-7v-645c0-5 0-7 5-8 37-1 115-3 173-3 200 0 228 111 228 171 0 76-43 119-71 138 41 18 105 63 105 158C520-64 405 2 254 2 186 2 124 1 86 0c-5-1-6-3-6-7zm354-187c0-78-72-118-170-118H162v240c22 1 54 2 85 2 111 2 187-38 187-124zM162-589v204c55 0 148-2 187 6 29-19 55-50 55-102 0-75-55-110-151-110-33 0-72 1-91 2" id="aZ"/><g id="x"><use transform="matrix(0.022222222222222223,0,0,0.022222222222222223,0,0)" xlink:href="#aY"/><use transform="matrix(0.022222222222222223,0,0,0.022222222222222223,18.244444444444447,0)" xlink:href="#aG"/><use transform="matrix(0.022222222222222223,0,0,0.022222222222222223,29.955555555555563,0)" xlink:href="#aJ"/><use transform="matrix(0.022222222222222223,0,0,0.022222222222222223,41.42222222222223,0)" xlink:href="#aU"/><use transform="matrix(0.022222222222222223,0,0,0.022222222222222223,52.31111111111111,0)" xlink:href="#aG"/><use transform="matrix(0.022222222222222223,0,0,0.022222222222222223,63.82222222222222,0)" xlink:href="#aB"/><use transform="matrix(0.022222222222222223,0,0,0.022222222222222223,78.24444444444444,0)" xlink:href="#aZ"/></g><g id="y"><use transform="matrix(0.01674,0,0,0.01674,0,0)" xlink:href="#aN"/><use transform="matrix(0.01674,0,0,0.01674,8.83872,0)" xlink:href="#aA"/><use transform="matrix(0.01674,0,0,0.01674,16.77348,0)" xlink:href="#aC"/><use transform="matrix(0.01674,0,0,0.01674,21.89592,0)" xlink:href="#aA"/></g><g id="z"><use transform="matrix(0.01674,0,0,0.01674,0,0)" xlink:href="#aO"/><use transform="matrix(0.01674,0,0,0.01674,6.461639999999999,0)" xlink:href="#aC"/><use transform="matrix(0.01674,0,0,0.01674,11.366460000000002,0)" xlink:href="#aG"/><use transform="matrix(0.01674,0,0,0.01674,20.18844,0)" xlink:href="#aH"/><use transform="matrix(0.01674,0,0,0.01674,25.64568,0)" xlink:href="#aM"/></g><g id="A"><use transform="matrix(0.022222222222222223,0,0,0.022222222222222223,0,0)" xlink:href="#az"/><use transform="matrix(0.022222222222222223,0,0,0.022222222222222223,10.622222222222222,0)" xlink:href="#aC"/><use transform="matrix(0.022222222222222223,0,0,0.022222222222222223,17.133333333333333,0)" xlink:href="#aG"/><use transform="matrix(0.022222222222222223,0,0,0.022222222222222223,28.844444444444445,0)" xlink:href="#aH"/><use transform="matrix(0.022222222222222223,0,0,0.022222222222222223,36.08888888888889,0)" xlink:href="#aM"/><use transform="matrix(0.022222222222222223,0,0,0.022222222222222223,47.066666666666656,0)" xlink:href="#aL"/><use transform="matrix(0.022222222222222223,0,0,0.022222222222222223,52.88888888888888,0)" xlink:href="#aH"/><use transform="matrix(0.022222222222222223,0,0,0.022222222222222223,60.13333333333333,0)" xlink:href="#aG"/><use transform="matrix(0.022222222222222223,0,0,0.022222222222222223,71.84444444444445,0)" xlink:href="#aJ"/><use transform="matrix(0.022222222222222223,0,0,0.022222222222222223,83.73333333333333,0)" xlink:href="#aC"/></g><g id="B"><use transform="matrix(0.022222222222222223,0,0,0.022222222222222223,0,0)" xlink:href="#aD"/><use transform="matrix(0.022222222222222223,0,0,0.022222222222222223,11.111111111111112,0)" xlink:href="#aX"/><use transform="matrix(0.022222222222222223,0,0,0.022222222222222223,21.422222222222224,0)" xlink:href="#aM"/><use transform="matrix(0.022222222222222223,0,0,0.022222222222222223,32.13333333333334,0)" xlink:href="#aJ"/><use transform="matrix(0.022222222222222223,0,0,0.022222222222222223,44.022222222222226,0)" xlink:href="#aC"/><use transform="matrix(0.022222222222222223,0,0,0.022222222222222223,50.688888888888904,0)" xlink:href="#aW"/><use transform="matrix(0.022222222222222223,0,0,0.022222222222222223,55.688888888888904,0)" xlink:href="#aJ"/><use transform="matrix(0.022222222222222223,0,0,0.022222222222222223,67.15555555555557,0)" xlink:href="#aU"/></g><g id="C"><use transform="matrix(0.022222222222222223,0,0,0.022222222222222223,0,0)" xlink:href="#az"/><use transform="matrix(0.022222222222222223,0,0,0.022222222222222223,10.822222222222221,0)" xlink:href="#aM"/><use transform="matrix(0.022222222222222223,0,0,0.022222222222222223,21.53333333333333,0)" xlink:href="#aH"/><use transform="matrix(0.022222222222222223,0,0,0.022222222222222223,29.577777777777772,0)" xlink:href="#aX"/><use transform="matrix(0.022222222222222223,0,0,0.022222222222222223,39.82222222222222,0)" xlink:href="#aW"/><use transform="matrix(0.022222222222222223,0,0,0.022222222222222223,44.82222222222222,0)" xlink:href="#aK"/><use transform="matrix(0.022222222222222223,0,0,0.022222222222222223,54.15555555555556,0)" xlink:href="#aM"/></g><path d="M163-288V-7c0 5-2 7-6 7H85c-4 0-5-3-5-7v-648c0-4 1-6 6-6h367c4 0 6 2 7 6l7 63c1 5-1 7-6 7H163v221h266c5 0 7 2 7 6v64c0 4-3 6-7 6H163" id="ba"/><path d="M74 141c-13 11-46 2-67 5-5 0-7-2-5-6C47 48 58-28 53-116c0-3 2-5 4-5h67c5 0 6 2 7 7 6 92-13 185-57 255" id="bb"/><g id="D"><use transform="matrix(0.01674,0,0,0.01674,0,0)" xlink:href="#ba"/><use transform="matrix(0.01674,0,0,0.01674,8.018460000000001,0)" xlink:href="#aW"/><use transform="matrix(0.01674,0,0,0.01674,11.784960000000002,0)" xlink:href="#aT"/><use transform="matrix(0.01674,0,0,0.01674,15.953220000000002,0)" xlink:href="#aC"/><use transform="matrix(0.01674,0,0,0.01674,20.858040000000003,0)" xlink:href="#aM"/><use transform="matrix(0.01674,0,0,0.01674,28.926720000000003,0)" xlink:href="#aH"/><use transform="matrix(0.01674,0,0,0.01674,34.66854000000001,0)" xlink:href="#aO"/><use transform="matrix(0.01674,0,0,0.01674,41.364540000000005,0)" xlink:href="#bb"/></g><path d="M374 0H15c-8-10-4-40-2-55 68-99 233-314 265-360-59 2-183 1-254 1-6 0-7-2-6-8l11-58c1-4 3-6 7-6h337c4 0 5 2 5 6-2 19 4 41-4 54C273-279 142-109 114-71c76-1 190 0 274 0 5 0 7 1 5 6L381-6c-1 5-4 6-7 6" id="bc"/><g id="E"><use transform="matrix(0.01674,0,0,0.01674,0,0)" xlink:href="#aJ"/><use transform="matrix(0.01674,0,0,0.01674,8.955900000000002,0)" xlink:href="#aG"/><use transform="matrix(0.01674,0,0,0.01674,17.777880000000003,0)" xlink:href="#aH"/><use transform="matrix(0.01674,0,0,0.01674,23.218380000000003,0)" xlink:href="#aS"/><use transform="matrix(0.01674,0,0,0.01674,37.146060000000006,0)" xlink:href="#aA"/><use transform="matrix(0.01674,0,0,0.01674,45.08082,0)" xlink:href="#aT"/><use transform="matrix(0.01674,0,0,0.01674,49.11516,0)" xlink:href="#aW"/><use transform="matrix(0.01674,0,0,0.01674,53.1495,0)" xlink:href="#bc"/><use transform="matrix(0.01674,0,0,0.01674,59.979420000000005,0)" xlink:href="#aM"/><use transform="matrix(0.01674,0,0,0.01674,68.34942000000001,0)" xlink:href="#aO"/><use transform="matrix(0.01674,0,0,0.01674,75.04542000000001,0)" xlink:href="#bb"/></g><g id="F"><use transform="matrix(0.01674,0,0,0.01674,0,0)" xlink:href="#aA"/><use transform="matrix(0.01674,0,0,0.01674,7.934760000000001,0)" xlink:href="#aJ"/><use transform="matrix(0.01674,0,0,0.01674,16.890660000000004,0)" xlink:href="#aN"/></g><g id="G"><use transform="matrix(0.01674,0,0,0.01674,0,0)" xlink:href="#aM"/><use transform="matrix(0.01674,0,0,0.01674,8.06868,0)" xlink:href="#aS"/><use transform="matrix(0.01674,0,0,0.01674,21.996360000000003,0)" xlink:href="#aW"/><use transform="matrix(0.01674,0,0,0.01674,25.896780000000003,0)" xlink:href="#aC"/><use transform="matrix(0.01674,0,0,0.01674,31.236840000000004,0)" xlink:href="#aO"/></g><g id="H"><use transform="matrix(0.01674,0,0,0.01674,0,0)" xlink:href="#aM"/><use transform="matrix(0.01674,0,0,0.01674,8.21934,0)" xlink:href="#aX"/><use transform="matrix(0.01674,0,0,0.01674,15.9867,0)" xlink:href="#aM"/><use transform="matrix(0.01674,0,0,0.01674,24.05538,0)" xlink:href="#aJ"/><use transform="matrix(0.01674,0,0,0.01674,33.01128,0)" xlink:href="#aC"/><use transform="matrix(0.01674,0,0,0.01674,38.35134,0)" xlink:href="#aO"/></g><path d="M163-655V-7c0 5-1 7-6 7H87c-5 0-7-2-7-7v-647c0-5 2-7 6-7h71c4 0 6 2 6 6" id="bd"/><path d="M311-698L108 38c-15 7-44 1-64 3-4 0-5-1-4-5l203-736c14-9 44-2 64-4 4 0 5 2 4 6" id="be"/><path d="M341-671c188 0 300 148 301 337 1 215-126 344-299 344C152 10 40-135 40-332c0-201 127-339 301-339zM125-332c0 145 76 267 220 267 133 0 212-108 211-267 0-155-85-264-216-264-120 0-215 93-215 264" id="bf"/><g id="I"><use transform="matrix(0.022222222222222223,0,0,0.022222222222222223,0,0)" xlink:href="#bd"/><use transform="matrix(0.022222222222222223,0,0,0.022222222222222223,5.4222222222222225,0)" xlink:href="#be"/><use transform="matrix(0.022222222222222223,0,0,0.022222222222222223,13.222222222222223,0)" xlink:href="#bf"/></g><g id="J"><use transform="matrix(0.022222222222222223,0,0,0.022222222222222223,0,0)" xlink:href="#aD"/><use transform="matrix(0.022222222222222223,0,0,0.022222222222222223,11.111111111111112,0)" xlink:href="#aX"/><use transform="matrix(0.022222222222222223,0,0,0.022222222222222223,21.422222222222224,0)" xlink:href="#aM"/><use transform="matrix(0.022222222222222223,0,0,0.022222222222222223,32.13333333333334,0)" xlink:href="#aJ"/><use transform="matrix(0.022222222222222223,0,0,0.022222222222222223,44.022222222222226,0)" xlink:href="#aC"/><use transform="matrix(0.022222222222222223,0,0,0.022222222222222223,51.111111111111114,0)" xlink:href="#aO"/></g><path d="M156 0H86c-4 0-6-1-6-6v-646c0-5 1-8 6-8 56-2 107-3 174-3 147 0 245 63 245 191 0 94-64 152-138 177C401-248 535-51 561-8c2 4 2 8-3 8-31-2-71 5-95-4-31-47-114-175-164-252-8-12-13-16-23-16H162V-6c0 4-2 6-6 6zm6-345h107c95 0 153-49 153-123 0-76-58-121-165-121-38 0-75 1-95 2v242" id="bg"/><path d="M393 0c-16-3-10-32-14-48-42 43-95 58-145 58-85 0-165-43-165-188v-302c0-5 2-6 7-6h71c4 0 5 2 5 6v292c0 77 36 124 106 124 48 0 86-18 116-51v-365c0-4 2-6 7-6h70c6 0 6 2 6 6 3 153-6 333 6 474 0 4-1 6-6 6h-64" id="bh"/><g id="K"><use transform="matrix(0.01674,0,0,0.01674,0,0)" xlink:href="#bg"/><use transform="matrix(0.01674,0,0,0.01674,9.357660000000001,0)" xlink:href="#aG"/><use transform="matrix(0.01674,0,0,0.01674,18.17964,0)" xlink:href="#bh"/><use transform="matrix(0.01674,0,0,0.01674,27.185760000000002,0)" xlink:href="#aC"/><use transform="matrix(0.01674,0,0,0.01674,32.09058,0)" xlink:href="#aM"/><use transform="matrix(0.01674,0,0,0.01674,40.46058,0)" xlink:href="#aO"/></g><g id="L"><use transform="matrix(0.01674,0,0,0.01674,0,0)" xlink:href="#aO"/><use transform="matrix(0.01674,0,0,0.01674,6.32772,0)" xlink:href="#bh"/><use transform="matrix(0.01674,0,0,0.01674,15.166440000000001,0)" xlink:href="#aQ"/><use transform="matrix(0.01674,0,0,0.01674,24.289740000000002,0)" xlink:href="#aO"/><use transform="matrix(0.01674,0,0,0.01674,30.7179,0)" xlink:href="#aK"/><use transform="matrix(0.01674,0,0,0.01674,37.74870000000001,0)" xlink:href="#aH"/><use transform="matrix(0.01674,0,0,0.01674,43.18919999999999,0)" xlink:href="#aW"/><use transform="matrix(0.01674,0,0,0.01674,46.95570000000001,0)" xlink:href="#aQ"/><use transform="matrix(0.01674,0,0,0.01674,55.87812,0)" xlink:href="#aM"/><use transform="matrix(0.01674,0,0,0.01674,64.09746000000001,0)" xlink:href="#aN"/></g><g id="M"><use transform="matrix(0.01674,0,0,0.01674,0,0)" xlink:href="#aK"/><use transform="matrix(0.01674,0,0,0.01674,7.0308,0)" xlink:href="#aG"/><use transform="matrix(0.01674,0,0,0.01674,15.85278,0)" xlink:href="#aJ"/><use transform="matrix(0.01674,0,0,0.01674,24.892380000000003,0)" xlink:href="#aO"/><use transform="matrix(0.01674,0,0,0.01674,31.220100000000002,0)" xlink:href="#bh"/><use transform="matrix(0.01674,0,0,0.01674,40.058820000000004,0)" xlink:href="#aS"/><use transform="matrix(0.01674,0,0,0.01674,53.98650000000001,0)" xlink:href="#aM"/><use transform="matrix(0.01674,0,0,0.01674,62.05518000000001,0)" xlink:href="#aH"/><use transform="matrix(0.01674,0,0,0.01674,67.79700000000001,0)" xlink:href="#aO"/></g><path d="M79-275c0-4 1-6 5-6h828c4 0 5 1 5 6v52c0 5-1 5-5 5H86c-5 0-7 0-7-4v-53" id="bi"/><path d="M548 0h-79c-6 0-8-2-9-7-75-265-92-349-105-395-18 80-54 202-111 395-2 6-5 7-10 7h-77c-8 0-10-2-11-7L16-479c-2-4 0-7 5-7h75c3 0 6 1 7 5 74 275 91 367 98 402h2c8-34 26-117 111-400 1-5 2-7 7-7h81c4 0 6 2 7 6 81 290 95 363 103 402h2c11-47 26-132 104-403 1-3 3-5 7-5h70c4 0 6 2 5 6L557-6c-2 4-3 6-9 6" id="bj"/><path d="M364-481c21-11 61-2 90-5 5 0 7 4 3 8-28 31-179 177-216 213-1 1 0 3 0 4C306-193 415-80 488-7c3 3 1 7-4 7h-95c-5 0-7-2-10-5-52-53-178-185-226-237V-7c0 5-1 7-6 7H77c-6 0-7-2-7-7v-704c0-4 1-6 7-6h70c4 0 6 2 6 6v448c47-47 185-190 211-218" id="bk"/><g id="N"><use transform="matrix(0.022222222222222223,0,0,0.022222222222222223,0,0)" xlink:href="#aR"/><use transform="matrix(0.022222222222222223,0,0,0.022222222222222223,12.155555555555557,0)" xlink:href="#aG"/><use transform="matrix(0.022222222222222223,0,0,0.022222222222222223,23.866666666666667,0)" xlink:href="#aJ"/><use transform="matrix(0.022222222222222223,0,0,0.022222222222222223,35.86666666666667,0)" xlink:href="#aO"/><use transform="matrix(0.022222222222222223,0,0,0.022222222222222223,44.266666666666666,0)" xlink:href="#bh"/><use transform="matrix(0.022222222222222223,0,0,0.022222222222222223,56,0)" xlink:href="#aS"/><use transform="matrix(0.022222222222222223,0,0,0.022222222222222223,74.4888888888889,0)" xlink:href="#aM"/><use transform="matrix(0.022222222222222223,0,0,0.022222222222222223,85.2,0)" xlink:href="#aH"/><use transform="matrix(0.022222222222222223,0,0,0.022222222222222223,92.26666666666667,0)" xlink:href="#bi"/><use transform="matrix(0.022222222222222223,0,0,0.022222222222222223,114.4,0)" xlink:href="#bj"/><use transform="matrix(0.022222222222222223,0,0,0.022222222222222223,130.42222222222225,0)" xlink:href="#aM"/><use transform="matrix(0.022222222222222223,0,0,0.022222222222222223,141.13333333333335,0)" xlink:href="#aQ"/><use transform="matrix(0.022222222222222223,0,0,0.022222222222222223,152.8,0)" xlink:href="#aV"/><use transform="matrix(0.022222222222222223,0,0,0.022222222222222223,164.7111111111111,0)" xlink:href="#aG"/><use transform="matrix(0.022222222222222223,0,0,0.022222222222222223,176.6,0)" xlink:href="#aG"/><use transform="matrix(0.022222222222222223,0,0,0.022222222222222223,188.31111111111113,0)" xlink:href="#bk"/></g><path d="M72-252c0-48 32-87 88-87 55 0 87 40 87 87 0 48-31 86-87 86-55 0-88-38-88-86" id="bl"/><use transform="matrix(0.022222222222222223,0,0,0.022222222222222223,0,0)" xlink:href="#bl" id="O"/><g id="P"><use transform="matrix(0.022222222222222223,0,0,0.022222222222222223,0,0)" xlink:href="#bg"/><use transform="matrix(0.022222222222222223,0,0,0.022222222222222223,12.155555555555557,0)" xlink:href="#bh"/><use transform="matrix(0.022222222222222223,0,0,0.022222222222222223,23.88888888888889,0)" xlink:href="#aJ"/><use transform="matrix(0.022222222222222223,0,0,0.022222222222222223,35.77777777777778,0)" xlink:href="#aC"/><use transform="matrix(0.022222222222222223,0,0,0.022222222222222223,42.44444444444445,0)" xlink:href="#aW"/><use transform="matrix(0.022222222222222223,0,0,0.022222222222222223,47.44444444444444,0)" xlink:href="#aS"/><use transform="matrix(0.022222222222222223,0,0,0.022222222222222223,65.93333333333334,0)" xlink:href="#aM"/></g><g id="Q"><use transform="matrix(0.022222222222222223,0,0,0.022222222222222223,0,0)" xlink:href="#aG"/><use transform="matrix(0.022222222222222223,0,0,0.022222222222222223,11.844444444444445,0)" xlink:href="#aC"/><use transform="matrix(0.022222222222222223,0,0,0.022222222222222223,18.511111111111113,0)" xlink:href="#aV"/><use transform="matrix(0.022222222222222223,0,0,0.022222222222222223,30.422222222222224,0)" xlink:href="#aM"/><use transform="matrix(0.022222222222222223,0,0,0.022222222222222223,41.13333333333334,0)" xlink:href="#aH"/></g><path fill="#3a3f4a" d="M153-367V-6c0 5-1 6-6 6H77c-5 0-7-2-7-7v-704c0-4 1-6 6-6h72c4 0 5 1 5 5l1 274c41-38 89-58 148-58 71 0 163 35 163 193V-7c0 5-2 7-7 7h-70c-5 0-7-2-7-8v-286c0-77-33-128-103-128-49 0-93 20-125 55" id="bm"/><path fill="#3a3f4a" d="M134-486c18 5 10 28 15 56 44-44 95-66 153-66 71 0 163 35 163 193V-7c0 5-2 7-7 7h-70c-5 0-7-2-7-8v-287c0-76-33-127-103-127-51 0-93 23-125 61V-7c0 5-1 7-6 7H76c-4 0-6-2-6-7-2-155 4-326-4-473 0-4 1-6 6-6h62" id="bn"/><g id="R"><use transform="matrix(0.017777777777777778,0,0,0.017777777777777778,0,0)" xlink:href="#ao"/><use transform="matrix(0.017777777777777778,0,0,0.017777777777777778,7.573333333333333,0)" xlink:href="#bm"/><use transform="matrix(0.017777777777777778,0,0,0.017777777777777778,17.10222222222222,0)" xlink:href="#aq"/><use transform="matrix(0.017777777777777778,0,0,0.017777777777777778,25.528888888888886,0)" xlink:href="#bn"/><use transform="matrix(0.017777777777777778,0,0,0.017777777777777778,34.70222222222222,0)" xlink:href="#au"/><use transform="matrix(0.017777777777777778,0,0,0.017777777777777778,43.41333333333333,0)" xlink:href="#am"/></g><path fill="#3a3f4a" d="M317-398c-28-17-74-29-116-29-66 0-88 32-88 62s18 51 93 81c101 39 142 80 142 151 0 92-75 143-179 143C114 10 64-2 35-19c-11-16-2-52-5-76 0-5 3-7 6-5 59 51 230 63 230-25 0-37-22-59-91-86C75-249 33-290 33-361c0-72 61-135 170-135 55 0 96 10 117 22 11 15 2 48 5 71 0 5-3 8-8 5" id="bo"/><g id="S"><use transform="matrix(0.017777777777777778,0,0,0.017777777777777778,0,0)" xlink:href="#bo"/><use transform="matrix(0.017777777777777778,0,0,0.017777777777777778,6.862222222222222,0)" xlink:href="#as"/><use transform="matrix(0.017777777777777778,0,0,0.017777777777777778,12.142222222222221,0)" xlink:href="#an"/><use transform="matrix(0.017777777777777778,0,0,0.017777777777777778,17.937777777777775,0)" xlink:href="#am"/><use transform="matrix(0.017777777777777778,0,0,0.017777777777777778,26.56,0)" xlink:href="#aq"/><use transform="matrix(0.017777777777777778,0,0,0.017777777777777778,34.986666666666665,0)" xlink:href="#al"/></g><path fill="#3a3f4a" d="M256-496c148 0 234 102 234 236C490-61 327 28 153 6v200c0 4 0 6-5 7-23 2-69 7-73 8-4 0-5-1-5-6v-671c35-13 101-40 186-40zm-10 73c-35 0-65 6-93 16v339c131 25 252-33 252-187 0-102-58-168-159-168" id="bp"/><g id="T"><use transform="matrix(0.017777777777777778,0,0,0.017777777777777778,0,0)" xlink:href="#bp"/><use transform="matrix(0.017777777777777778,0,0,0.017777777777777778,9.475555555555555,0)" xlink:href="#am"/><use transform="matrix(0.017777777777777778,0,0,0.017777777777777778,18.044444444444444,0)" xlink:href="#an"/><use transform="matrix(0.017777777777777778,0,0,0.017777777777777778,24.14222222222222,0)" xlink:href="#bo"/><use transform="matrix(0.017777777777777778,0,0,0.017777777777777778,30.86222222222222,0)" xlink:href="#ax"/><use transform="matrix(0.017777777777777778,0,0,0.017777777777777778,35.05777777777777,0)" xlink:href="#bo"/><use transform="matrix(0.017777777777777778,0,0,0.017777777777777778,41.919999999999995,0)" xlink:href="#as"/><use transform="matrix(0.017777777777777778,0,0,0.017777777777777778,47.591111111111104,0)" xlink:href="#bo"/></g><path fill="#3a3f4a" d="M79-486c-13-159 53-266 200-234 5 1 5 4 5 8v59c0 4-2 6-6 5-74-15-114 3-116 117v45h96c4 0 6 2 6 5v60c0 5-2 6-6 7h-96V-7c0 4-1 7-6 7H85c-4 0-6-2-6-7v-407H14c-4 0-6-2-6-7v-59c0-4 2-6 6-6h65" id="bq"/><path fill="#3a3f4a" d="M451-27C262 61 35-3 35-239c0-166 143-285 335-251v-221c0-5 2-6 6-6h72c5 0 6 2 6 5 1 225-3 456 2 678 0 4-1 5-5 7zm-81-49v-338c-134-40-254 46-250 171C125-80 243-39 370-76" id="br"/><g id="U"><use transform="matrix(0.017777777777777778,0,0,0.017777777777777778,0,0)" xlink:href="#bq"/><use transform="matrix(0.017777777777777778,0,0,0.017777777777777778,4.746666666666667,0)" xlink:href="#am"/><use transform="matrix(0.017777777777777778,0,0,0.017777777777777778,13.475555555555555,0)" xlink:href="#am"/><use transform="matrix(0.017777777777777778,0,0,0.017777777777777778,22.204444444444444,0)" xlink:href="#br"/><use transform="matrix(0.017777777777777778,0,0,0.017777777777777778,31.715555555555557,0)" xlink:href="#bo"/></g><g id="V"><use transform="matrix(0.017777777777777778,0,0,0.017777777777777778,0,0)" xlink:href="#bo"/><use transform="matrix(0.017777777777777778,0,0,0.017777777777777778,6.844444444444444,0)" xlink:href="#ar"/><use transform="matrix(0.017777777777777778,0,0,0.017777777777777778,15.093333333333334,0)" xlink:href="#bn"/><use transform="matrix(0.017777777777777778,0,0,0.017777777777777778,24.60444444444445,0)" xlink:href="#ao"/><use transform="matrix(0.017777777777777778,0,0,0.017777777777777778,32.53333333333334,0)" xlink:href="#bo"/></g><path fill="#3a3f4a" d="M393 0c-16-3-10-32-14-48-42 43-95 58-145 58-85 0-165-43-165-188v-302c0-5 2-6 7-6h71c4 0 5 2 5 6v292c0 77 36 124 106 124 48 0 86-18 116-51v-365c0-4 2-6 7-6h70c6 0 6 2 6 6 3 153-6 333 6 474 0 4-1 6-6 6h-64" id="bs"/><path fill="#3a3f4a" d="M77-717h70c5 0 7 0 7 6v235c170-67 342 39 336 214C482-30 279 53 76-10c-4-1-6-5-6-9v-692c0-5 2-6 7-6zm328 462c0-102-60-168-156-168-43 0-70 7-95 17v336c132 31 251-31 251-185" id="bt"/><g id="W"><use transform="matrix(0.017777777777777778,0,0,0.017777777777777778,0,0)" xlink:href="#bp"/><use transform="matrix(0.017777777777777778,0,0,0.017777777777777778,9.333333333333334,0)" xlink:href="#bs"/><use transform="matrix(0.017777777777777778,0,0,0.017777777777777778,18.72,0)" xlink:href="#bt"/><use transform="matrix(0.017777777777777778,0,0,0.017777777777777778,28.053333333333335,0)" xlink:href="#at"/><use transform="matrix(0.017777777777777778,0,0,0.017777777777777778,32.33777777777778,0)" xlink:href="#ax"/><use transform="matrix(0.017777777777777778,0,0,0.017777777777777778,36.53333333333334,0)" xlink:href="#bo"/><use transform="matrix(0.017777777777777778,0,0,0.017777777777777778,43.18222222222223,0)" xlink:href="#bm"/><use transform="matrix(0.017777777777777778,0,0,0.017777777777777778,52.711111111111116,0)" xlink:href="#am"/><use transform="matrix(0.017777777777777778,0,0,0.017777777777777778,61.60000000000001,0)" xlink:href="#bo"/></g><path fill="#3a3f4a" d="M74-9v-639c0-5 1-7 7-8 29-1 97-3 189-3 235 0 353 133 353 319C623-96 437 2 268 2 205 2 113 2 81 0c-4 0-7-3-7-9zm121-543v448c182 18 304-56 304-233 0-172-129-234-304-215" id="bu"/><path fill="#3a3f4a" d="M460-223c-76 7-216 3-306 4 3 70 49 126 151 126 45 0 86-8 124-24 3-2 6-1 6 4v83c0 6-2 9-6 11-38 18-82 29-150 29C97 10 32-118 32-241c0-139 84-262 235-262 172 0 221 136 201 273-1 4-3 6-8 7zm-306-82c60 0 150 1 204-1 1-38-17-101-96-101-69 0-100 53-108 102" id="bv"/><path fill="#3a3f4a" d="M219-89c8 3 23-7 23 5v75c0 7-1 8-6 11C147 21 63 12 63-119v-585c0-5 3-8 9-8h103c6 0 9 3 9 8v574c0 31 11 41 35 41" id="bw"/><path fill="#3a3f4a" d="M63-9v-477c0-5 3-7 8-7h106c6 0 8 1 8 7V-8c0 6-2 8-9 8H73c-7 0-10-3-10-9zm61-551c-41 0-68-28-68-69s29-69 69-69c43 0 68 29 68 69 0 41-27 69-69 69" id="bx"/><path fill="#3a3f4a" d="M295 0H180c-6 0-8-3-10-6C137-102 40-386 5-486c-1-4 0-7 6-7h114c5 0 7 1 9 6 74 235 96 332 110 374 11-44 41-139 117-374 1-5 4-6 8-6h101c3 0 7 2 5 8C437-380 340-100 306-7c-2 5-5 7-11 7" id="by"/><path fill="#3a3f4a" d="M64-493h94c6 0 9 2 11 8 5 13 9 38 10 60 34-42 91-78 160-78 6 0 8 1 8 7v106c0 5-2 7-9 7-71-2-130 23-153 53V-8c0 6-3 8-9 8H72c-7 0-9-3-9-8-2-158 5-329-5-479 0-5 1-6 6-6" id="bz"/><path fill="#3a3f4a" d="M7-493h117c4 0 7 1 9 6 65 187 99 295 112 344 33-101 68-204 113-344 2-4 5-6 11-6h103c6 0 7 3 6 8C406-264 297 6 216 191c-2 4-5 7-13 7l-109 8c-6 0-7-2-5-8 30-60 62-131 94-207 2-6 3-9 1-16C157-91 61-329 1-486c-2-4 1-7 6-7" id="bA"/><g id="X"><use transform="matrix(0.022222222222222223,0,0,0.022222222222222223,0,0)" xlink:href="#bu"/><use transform="matrix(0.022222222222222223,0,0,0.022222222222222223,14.733333333333334,0)" xlink:href="#bv"/><use transform="matrix(0.022222222222222223,0,0,0.022222222222222223,25.822222222222223,0)" xlink:href="#bw"/><use transform="matrix(0.022222222222222223,0,0,0.022222222222222223,31.644444444444446,0)" xlink:href="#bx"/><use transform="matrix(0.022222222222222223,0,0,0.022222222222222223,37.22222222222222,0)" xlink:href="#by"/><use transform="matrix(0.022222222222222223,0,0,0.022222222222222223,47.95555555555557,0)" xlink:href="#bv"/><use transform="matrix(0.022222222222222223,0,0,0.022222222222222223,59.11111111111112,0)" xlink:href="#bz"/><use transform="matrix(0.022222222222222223,0,0,0.022222222222222223,67.91111111111113,0)" xlink:href="#bA"/></g><path fill="#3a3f4a" d="M402 56C401-18 260 0 182-8c-89 63-48 141 83 141 95 0 137-39 137-77zM243-416c-50 0-81 31-81 82 0 46 28 80 81 80 50 0 80-29 80-78 0-47-24-84-80-84zm0-87c47-1 77 10 111 10h139c5 0 6 2 6 6v82c0 4-1 6-6 6-19 0-55-2-77-5 11 16 22 40 22 76 0 120-107 174-233 158-7 24-4 44 10 61l102 4c137 7 196 61 196 143 0 102-100 184-256 184C96 222 23 141 23 68c0-32 27-73 93-130-27-40-28-97-3-140-41-26-69-69-69-130 0-96 73-171 199-171" id="bB"/><path fill="#3a3f4a" d="M387 0c-18-1-12-28-17-41-43 40-94 51-139 51-95 0-168-51-168-191v-305c0-6 2-7 8-7h105c6 0 7 2 7 7v291c0 62 27 100 87 100 38 0 66-13 91-36v-355c0-5 2-7 8-7h105c6 0 7 2 7 7 2 154-6 336 6 479 1 5-2 7-8 7h-92" id="bC"/><path fill="#3a3f4a" d="M316-97v-123c-15-2-32-3-55-3-79 0-114 26-114 69 0 37 26 69 98 69 26 0 49-3 71-12zm117-208c0 89 1 187 0 270-82 35-140 45-208 45C116 10 29-41 29-154c0-125 138-172 287-157 1-38-7-87-101-87-50 0-94 10-131 28-3 1-8 0-8-6v-87c0-5 1-7 6-10 43-20 98-30 152-30 139 0 199 87 199 198" id="bD"/><path fill="#3a3f4a" d="M157-493c20 2 13 24 19 45 43-36 91-55 145-55 75 0 167 38 167 198V-9c0 7-3 9-8 9H376c-6 0-9-3-9-9v-285c0-66-28-104-86-104-40 0-73 15-97 41V-8c0 5-3 8-8 8H71c-6 0-8-3-8-8-2-157 4-328-4-478 0-5 1-7 7-7h91" id="bE"/><path fill="#3a3f4a" d="M296-88v72c0 6-1 10-6 12C184 31 74 7 74-129v-263H11c-5-1-7-3-7-9v-84c0-6 2-8 8-8h63c1-35 5-98 10-123 1-5 3-8 8-9l101-14c5-1 7 0 7 5-3 33-5 92-5 141h97c5 0 7 2 7 7v87c0 5-2 7-7 7h-98v237c-6 61 41 73 95 61 3-1 6 0 6 6" id="bF"/><path fill="#3a3f4a" d="M338-377c-39-29-195-50-196 14 0 22 15 38 79 62 114 43 153 87 153 158 0 94-74 153-197 153C118 10 66-1 36-18c-5-3-7-5-7-11v-95c0-5 4-7 8-5 43 28 98 40 143 40 52 0 77-18 77-44 0-25-19-42-81-66C67-240 28-284 28-356c0-76 62-147 187-147 58 0 102 8 126 20 5 3 6 7 6 12v88c0 5-3 8-9 6" id="bG"/><g id="Y"><use transform="matrix(0.022222222222222223,0,0,0.022222222222222223,0,0)" xlink:href="#bB"/><use transform="matrix(0.022222222222222223,0,0,0.022222222222222223,11.222222222222223,0)" xlink:href="#bC"/><use transform="matrix(0.022222222222222223,0,0,0.022222222222222223,23.422222222222224,0)" xlink:href="#bD"/><use transform="matrix(0.022222222222222223,0,0,0.022222222222222223,34.44444444444444,0)" xlink:href="#bz"/><use transform="matrix(0.022222222222222223,0,0,0.022222222222222223,42.08888888888889,0)" xlink:href="#bD"/><use transform="matrix(0.022222222222222223,0,0,0.022222222222222223,53.111111111111114,0)" xlink:href="#bE"/><use transform="matrix(0.022222222222222223,0,0,0.022222222222222223,65.35555555555555,0)" xlink:href="#bF"/><use transform="matrix(0.022222222222222223,0,0,0.022222222222222223,72.35555555555555,0)" xlink:href="#bv"/><use transform="matrix(0.022222222222222223,0,0,0.022222222222222223,83.66666666666666,0)" xlink:href="#bv"/><use transform="matrix(0.022222222222222223,0,0,0.022222222222222223,95.1111111111111,0)" xlink:href="#bG"/></g><path fill="#3a3f4a" d="M72-252c0-48 32-87 88-87 55 0 87 40 87 87 0 48-31 86-87 86-55 0-88-38-88-86" id="bH"/><use transform="matrix(0.022222222222222223,0,0,0.022222222222222223,0,0)" xlink:href="#bH" id="Z"/><path fill="#3a3f4a" d="M416-208H162L90-6c-1 4-3 6-8 6H14C9 0 7-3 8-8l218-607c3-8 6-15 7-41 0-3 2-5 5-5h98c4 0 5 1 6 5L577-7c2 4 1 7-4 7h-76c-4 0-6-2-8-5zm-231-77h208c-23-65-84-242-105-308-17 64-65 198-103 308" id="bI"/><g id="aa"><use transform="matrix(0.022222222222222223,0,0,0.022222222222222223,0,0)" xlink:href="#bI"/><use transform="matrix(0.022222222222222223,0,0,0.022222222222222223,12.73333333333333,0)" xlink:href="#as"/></g><g id="ab"><use transform="matrix(0.022222222222222223,0,0,0.022222222222222223,0,0)" xlink:href="#at"/><use transform="matrix(0.022222222222222223,0,0,0.022222222222222223,5.355555555555556,0)" xlink:href="#am"/><use transform="matrix(0.022222222222222223,0,0,0.022222222222222223,16.133333333333333,0)" xlink:href="#aq"/><use transform="matrix(0.022222222222222223,0,0,0.022222222222222223,26.666666666666664,0)" xlink:href="#bo"/><use transform="matrix(0.022222222222222223,0,0,0.022222222222222223,35.24444444444444,0)" xlink:href="#as"/></g><g id="ac"><use transform="matrix(0.022222222222222223,0,0,0.022222222222222223,0,0)" xlink:href="#ak"/><use transform="matrix(0.022222222222222223,0,0,0.022222222222222223,11.711111111111112,0)" xlink:href="#bn"/><use transform="matrix(0.022222222222222223,0,0,0.022222222222222223,23.6,0)" xlink:href="#ao"/><use transform="matrix(0.022222222222222223,0,0,0.022222222222222223,32.93333333333334,0)" xlink:href="#am"/></g><g id="ad"><use transform="matrix(0.022222222222222223,0,0,0.022222222222222223,0,0)" xlink:href="#bp"/><use transform="matrix(0.022222222222222223,0,0,0.022222222222222223,11.844444444444445,0)" xlink:href="#am"/><use transform="matrix(0.022222222222222223,0,0,0.022222222222222223,22.555555555555557,0)" xlink:href="#an"/></g><g id="ae"><use transform="matrix(0.022222222222222223,0,0,0.022222222222222223,0,0)" xlink:href="#bo"/><use transform="matrix(0.022222222222222223,0,0,0.022222222222222223,8.4,0)" xlink:href="#bs"/><use transform="matrix(0.022222222222222223,0,0,0.022222222222222223,20.133333333333333,0)" xlink:href="#bt"/><use transform="matrix(0.022222222222222223,0,0,0.022222222222222223,32.24444444444444,0)" xlink:href="#bo"/><use transform="matrix(0.022222222222222223,0,0,0.022222222222222223,40.77777777777777,0)" xlink:href="#ao"/><use transform="matrix(0.022222222222222223,0,0,0.022222222222222223,50.1111111111111,0)" xlink:href="#an"/><use transform="matrix(0.022222222222222223,0,0,0.022222222222222223,57.333333333333336,0)" xlink:href="#ax"/><use transform="matrix(0.022222222222222223,0,0,0.022222222222222223,62.333333333333336,0)" xlink:href="#bt"/><use transform="matrix(0.022222222222222223,0,0,0.022222222222222223,74.17777777777778,0)" xlink:href="#am"/><use transform="matrix(0.022222222222222223,0,0,0.022222222222222223,84.88888888888889,0)" xlink:href="#an"/></g><g id="af"><use transform="matrix(0.022222222222222223,0,0,0.022222222222222223,0,0)" xlink:href="#ay"/><use transform="matrix(0.022222222222222223,0,0,0.022222222222222223,14.422222222222222,0)" xlink:href="#bs"/><use transform="matrix(0.022222222222222223,0,0,0.022222222222222223,26.155555555555555,0)" xlink:href="#bp"/><use transform="matrix(0.022222222222222223,0,0,0.022222222222222223,37.82222222222222,0)" xlink:href="#at"/><use transform="matrix(0.022222222222222223,0,0,0.022222222222222223,43.17777777777778,0)" xlink:href="#ax"/><use transform="matrix(0.022222222222222223,0,0,0.022222222222222223,48.17777777777778,0)" xlink:href="#ao"/><use transform="matrix(0.022222222222222223,0,0,0.022222222222222223,57.86666666666667,0)" xlink:href="#aq"/><use transform="matrix(0.022222222222222223,0,0,0.022222222222222223,68.4,0)" xlink:href="#as"/><use transform="matrix(0.022222222222222223,0,0,0.022222222222222223,74.91111111111111,0)" xlink:href="#am"/><use transform="matrix(0.022222222222222223,0,0,0.022222222222222223,86.02222222222223,0)" xlink:href="#bo"/></g><g id="ag"><use transform="matrix(0.022222222222222223,0,0,0.022222222222222223,0,0)" xlink:href="#bp"/><use transform="matrix(0.022222222222222223,0,0,0.022222222222222223,11.844444444444445,0)" xlink:href="#ak"/><use transform="matrix(0.022222222222222223,0,0,0.022222222222222223,24,0)" xlink:href="#bo"/><use transform="matrix(0.022222222222222223,0,0,0.022222222222222223,32.75555555555555,0)" xlink:href="#bo"/><use transform="matrix(0.022222222222222223,0,0,0.022222222222222223,41.15555555555555,0)" xlink:href="#ax"/><use transform="matrix(0.022222222222222223,0,0,0.022222222222222223,46.155555555555544,0)" xlink:href="#bt"/><use transform="matrix(0.022222222222222223,0,0,0.022222222222222223,57.82222222222222,0)" xlink:href="#at"/><use transform="matrix(0.022222222222222223,0,0,0.022222222222222223,63.17777777777778,0)" xlink:href="#am"/></g><path fill="#3a3f4a" d="M80-7v-645c0-5 0-7 5-8 37-1 115-3 173-3 200 0 228 111 228 171 0 76-43 119-71 138 41 18 105 63 105 158C520-64 405 2 254 2 186 2 124 1 86 0c-5-1-6-3-6-7zm354-187c0-78-72-118-170-118H162v240c22 1 54 2 85 2 111 2 187-38 187-124zM162-589v204c55 0 148-2 187 6 29-19 55-50 55-102 0-75-55-110-151-110-33 0-72 1-91 2" id="bJ"/><path fill="#3a3f4a" d="M267-216H43c-4 0-5-1-5-5v-63c0-3 1-5 5-5h224c3 0 5 1 5 5v63c0 4-1 5-5 5" id="bK"/><g id="ah"><use transform="matrix(0.022222222222222223,0,0,0.022222222222222223,0,0)" xlink:href="#bJ"/><use transform="matrix(0.022222222222222223,0,0,0.022222222222222223,12.511111111111111,0)" xlink:href="#am"/><use transform="matrix(0.022222222222222223,0,0,0.022222222222222223,23.622222222222224,0)" xlink:href="#bo"/><use transform="matrix(0.022222222222222223,0,0,0.022222222222222223,32.2,0)" xlink:href="#as"/><use transform="matrix(0.022222222222222223,0,0,0.022222222222222223,38.800000000000004,0)" xlink:href="#bK"/><use transform="matrix(0.022222222222222223,0,0,0.022222222222222223,46.06666666666668,0)" xlink:href="#am"/><use transform="matrix(0.022222222222222223,0,0,0.022222222222222223,57.044444444444444,0)" xlink:href="#bq"/><use transform="matrix(0.022222222222222223,0,0,0.022222222222222223,62.93333333333334,0)" xlink:href="#bq"/><use transform="matrix(0.022222222222222223,0,0,0.022222222222222223,68.86666666666667,0)" xlink:href="#ak"/><use transform="matrix(0.022222222222222223,0,0,0.022222222222222223,80.57777777777778,0)" xlink:href="#an"/><use transform="matrix(0.022222222222222223,0,0,0.022222222222222223,88.6888888888889,0)" xlink:href="#as"/></g><g id="ai"><use transform="matrix(0.022222222222222223,0,0,0.022222222222222223,0,0)" xlink:href="#ak"/><use transform="matrix(0.022222222222222223,0,0,0.022222222222222223,11.711111111111112,0)" xlink:href="#an"/><use transform="matrix(0.022222222222222223,0,0,0.022222222222222223,18.955555555555556,0)" xlink:href="#br"/><use transform="matrix(0.022222222222222223,0,0,0.022222222222222223,30.6,0)" xlink:href="#am"/><use transform="matrix(0.022222222222222223,0,0,0.022222222222222223,41.31111111111112,0)" xlink:href="#an"/><use transform="matrix(0.022222222222222223,0,0,0.022222222222222223,48.533333333333346,0)" xlink:href="#ax"/><use transform="matrix(0.022222222222222223,0,0,0.022222222222222223,53.533333333333346,0)" xlink:href="#bn"/><use transform="matrix(0.022222222222222223,0,0,0.022222222222222223,65.00000000000001,0)" xlink:href="#au"/></g></defs></g></svg>